<?xml version="1.0" encoding="utf-8"?>
<svg version="1.1" xmlns="http://www.w3.org/2000/svg" x="0px" y="0px" width="340px" height="340px" viewBox="0 0 340 340">
<path fill="#999" d="M20,20v50h100v100h50v50h150V20H20zM270,170h-50v-50h-50V70h100V170zM120,270H70v-50h50v-50H70v-50H20v200h150V220h-50V270zM220,320h100v-50H220V320z"/>
<path fill="#c00" d="M300,16H20c-2.2089844,0-4,1.7910156-4,4c0,1.4599609,0.7900391,2.7236328,1.9580078,3.4228516L7.9672852,40.7246094H16V50c0,13.2333984,10.7666016,24,24,24h60c8.8222656,0,16,7.1777344,16,16v60c0,8.8222656-7.1777344,16-16,16H90c-8.8222656,0-16-7.1777344-16-16v-10c0-13.2333984-10.7666016-24-24-24H40c-13.2333984,0-24,10.7666016-24,24v160c0,13.2333984,10.7666016,24,24,24h110c13.2333984,0,24-10.7666016,24-24v-60c0-13.2333984-10.7666016-24-24-24h-10c-13.2333984,0-24,10.7666016-24,24v10c0,8.8222656-7.1777344,16-16,16H90c-8.8222656,0-16-7.1777344-16-16v-10c0-8.8222656,7.1777344-16,16-16h10c13.2333984,0,24-10.7666016,24-24v-10c0-8.8222656,7.1777344-16,16-16h10c8.8222656,0,16,7.1777344,16,16v10c0,13.2333984,10.7666016,24,24,24h110c13.2333984,0,24-10.7666016,24-24V40C324,26.7666016,313.2333984,16,300,16zM316,200c0,8.8222656-7.1777344,16-16,16H190c-8.8222656,0-16-7.1777344-16-16v-10c0-13.2333984-10.7666016-24-24-24h-10c-13.2333984,0-24,10.7666016-24,24v10c0,8.8222656-7.1777344,16-16,16H90c-13.2333984,0-24,10.7666016-24,24v10c0,13.2333984,10.7666016,24,24,24h10c13.2333984,0,24-10.7666016,24-24v-10c0-8.8222656,7.1777344-16,16-16h10c8.8222656,0,16,7.1777344,16,16v60c0,8.8222656-7.1777344,16-16,16H40c-8.8222656,0-16-7.1777344-16-16V140c0-8.8222656,7.1777344-16,16-16h10c8.8222656,0,16,7.1777344,16,16v10c0,13.2333984,10.7666016,24,24,24h10c13.2333984,0,24-10.7666016,24-24V90c0-13.2333984-10.7666016-24-24-24H40c-8.8222656,0-16-7.1777344-16-16v-9.2753906h7.8994141L22.2441406,24H300c8.8222656,0,16,7.1777344,16,16V200zM250,66h-59.2753906v-7.8994141l-17.2480469,9.9580078C172.7919922,66.8359375,171.5004883,66,170,66c-2.2089844,0-4,1.7910156-4,4v30c0,13.2333984,10.7661133,24,24,24h10c8.8222656,0,16,7.1777344,16,16v10c0,13.2333984,10.7661133,24,24,24h10c13.2338867,0,24-10.7666016,24-24V90C274,76.7666016,263.2338867,66,250,66zM266,150c0,8.8222656-7.1777344,16-16,16h-10c-8.8222656,0-16-7.1777344-16-16v-10c0-13.2333984-10.7661133-24-24-24h-10c-8.8222656,0-16-7.1777344-16-16V72.375l16.7246094,9.6582031V74H250c8.8222656,0,16,7.1777344,16,16V150zM300,266h-80c-2.2089844,0-4,1.7910156-4,4c0,1.4599609,0.7900391,2.7236328,1.9580078,3.4228516l-9.9907227,17.3017578H216V300c0,13.2333984,10.7661133,24,24,24h60c13.2333984,0,24-10.7666016,24-24v-10C324,276.7666016,313.2333984,266,300,266zM316,300c0,8.8222656-7.1777344,16-16,16h-60c-8.8222656,0-16-7.1777344-16-16v-9.2753906h7.8994141L222.2441406,274H300c8.8222656,0,16,7.1777344,16,16V300z"/>
</svg>
