<?xml version="1.0" encoding="utf-8"?>
<svg version="1.1" xmlns="http://www.w3.org/2000/svg" x="0px" y="0px" width="340px" height="340px" viewBox="0 0 340 340">
<path fill="#999" d="M20,20h72.4135742v72.4140625H20V20zM30.3452148,30.3447266v51.7236328h51.7241211V30.3447266H30.3452148zM40.6894531,40.6894531h31.034668v31.0351563h-31.034668V40.6894531zM102.7587891,20h20.6899414v10.3447266h10.3442383V20h10.3447266v31.0351563h10.3452148v10.34375h10.3447266v10.3457031h-10.3447266v20.6894531h10.3447266V82.0683594h10.3447266v10.3457031h-10.3447266v20.6894531h-10.3447266v20.6894531h-10.3452148v10.3457031h10.3452148v10.34375h-10.3452148v51.7246094h10.3452148v-51.7246094h10.3447266v31.0351563h10.3447266v10.3457031h-10.3447266v10.34375h10.3447266v-10.34375h10.3447266v10.34375h10.3452148v10.3447266h-10.3452148v20.6904297h10.3452148v-10.3447266h10.3447266v10.3447266h10.3452148v10.3457031h10.3442383v-20.6904297h20.6899414v-20.6904297h-10.3452148v10.3447266h-10.3447266v-10.3447266h-20.6894531v-10.34375h20.6894531v-10.3457031h-31.0341797v-31.0351563h-10.3452148v31.0351563h10.3452148v10.3457031h-10.3452148v-10.3457031h-10.3447266v-31.0351563h-10.3447266v-10.34375h10.3447266v-10.3457031h-10.3447266v-20.6894531h10.3447266v10.3447266h10.3447266v-10.3447266h20.6899414v-10.3447266h20.6894531v10.3447266h-20.6894531v10.3447266h-10.3447266v20.6904297h10.3447266v-20.6904297h10.3452148v20.6904297h-10.3452148v31.0341797h20.6894531V164.828125h-10.3442383v-20.6894531h10.3442383v10.34375h10.3447266v-20.6894531h-10.3447266v-10.3447266h10.3447266v-10.3447266h20.6899414v-10.3447266h20.6894531v10.3447266h20.6899414v10.3447266h-10.3447266v10.3447266h-10.3452148v-10.3447266h-20.6894531v10.3447266h10.3447266v20.6894531h-10.3447266v-10.34375h-10.3447266v10.34375h10.3447266v10.3457031h10.3447266v-10.3457031h20.6899414v-10.34375h10.3447266v-10.3457031h10.3447266v10.3457031H320v20.6894531h-20.6894531v-10.3457031h-10.3447266v10.3457031h-20.6899414v10.3447266h-10.3447266V164.828125h-10.3447266v10.3447266h-10.3452148v20.6904297h41.3793945v-10.3457031h-10.3447266v-10.3447266h20.6899414v10.3447266h10.3447266v10.3457031h10.3447266v-20.6904297H320v31.0341797h-20.6894531v10.3447266h-10.3447266v10.3457031h10.3447266v-10.3457031H320v31.0361328h-20.6894531v-10.3457031h-10.3447266v10.3457031h-10.3452148v10.34375h10.3452148v10.34375h20.6894531v-10.34375H320v10.34375h-10.3447266v10.3457031h-20.6894531v10.3447266h-10.3452148v-10.3447266h-10.3447266v10.3447266h10.3447266v10.3447266h10.3452148V309.65625h10.3447266v-20.6904297h10.3447266V309.65625h-10.3447266V320h-31.034668v-20.6894531h-20.6894531V309.65625h10.3447266V320h-20.6899414v-10.34375h-10.3447266v-10.3457031h-10.3442383V309.65625h10.3442383V320h-31.0341797v-10.34375h10.3447266v-10.3457031h-10.3447266V309.65625h-10.3452148v-10.3457031h10.3452148v-10.3447266h20.6899414v-10.3447266h10.3442383v-10.3457031h-10.3442383v10.3457031h-10.3452148v-10.3457031h10.3452148v-10.34375h-10.3452148v-20.6894531h-10.3447266v10.3457031h-10.3452148v-10.3457031h-10.3447266v10.3457031h10.3447266v10.34375h10.3452148v10.34375h-10.3452148v-10.34375h-20.6894531v-10.34375h-31.034668v20.6875h20.6899414v-10.34375h10.3447266v10.34375h-10.3447266v10.3457031h-10.3452148v10.3447266h10.3452148v10.3447266h10.3447266v-31.0351563h10.3447266v10.3457031h20.6899414v10.3447266h-20.6899414V320h-10.3447266v-10.34375h-10.3447266v-10.3457031h-10.3452148v-10.3447266h-10.3447266V309.65625h10.3447266V320h-10.3447266v-10.34375h-10.3442383v-20.6904297h10.3442383v-10.3447266h-10.3442383v-20.6894531h-10.3452148V309.65625h-10.3447266v-72.4140625H82.0693359v-10.3447266h20.6894531v-10.3457031h10.3447266v-10.3447266h10.3452148v20.6904297h-10.3452148v10.3447266h10.3452148v-10.3447266h10.3442383v-10.3457031h10.3447266v20.6904297h10.3452148v-10.3447266h10.3447266v-10.3457031h-20.6899414v-10.3447266h-10.3447266v-10.34375h-20.6894531v-10.3457031h10.3452148v-10.3447266h10.3442383V164.828125h-10.3442383v10.3447266h-20.6899414V164.828125h20.6899414v-10.3457031h-20.6899414v10.3457031H92.4135742v10.3447266H82.0693359v10.3447266h20.6894531v10.3457031H82.0693359v10.34375h20.6894531v10.3447266H82.0693359v-10.3447266H71.7241211v31.0351563H61.3793945v-10.3447266H51.0341797v10.3447266H40.6894531v-20.6904297h10.3447266v-20.6884766h10.3452148v10.34375h10.3447266v-20.6894531H61.3793945v-10.3447266h10.3447266V164.828125h20.6894531v-10.3457031H82.0693359v-10.34375h20.6894531v-10.3457031h10.3447266v10.3457031h20.6894531v-10.3457031h-20.6894531v-10.3447266h-10.3447266v10.3447266H82.0693359v-10.3447266h20.6894531v-10.3447266H61.3793945v10.3447266H51.0341797v-10.3447266H30.3452148v-10.3447266h72.4135742v10.3447266h10.3447266v-10.3447266h10.3452148v20.6894531h10.3442383v-10.3447266h10.3447266V71.7246094h-10.3447266v20.6894531h-10.3442383V61.3789063h10.3442383v-10.34375h-10.3442383v10.34375h-10.3452148v31.0351563h-10.3447266V61.3789063h10.3447266v-10.34375h10.3452148V30.3447266h-20.6899414V20zM154.4829102,20h10.3447266v10.3447266h10.3447266v10.3447266h10.3447266v10.3457031h-10.3447266V40.6894531h-10.3447266V30.3447266h-10.3447266V20zM185.5170898,20h10.3452148v10.3447266h-10.3452148V20zM195.8623047,51.0351563h10.3447266V40.6894531h10.3452148V30.3447266h-10.3452148V20h10.3452148v10.3447266h10.3442383V20h10.3447266v10.3447266h-10.3447266v10.3447266h10.3447266v51.7246094h-10.3447266V71.7246094h-10.3442383v20.6894531h-10.3452148V61.3789063h10.3452148v-10.34375h-10.3452148v10.34375h-10.3447266V51.0351563zM175.1723633,61.3789063h10.3447266v10.3457031h10.3452148v31.0341797h-10.3452148V71.7246094h-10.3447266V61.3789063zM247.5864258,20H320v72.4140625h-72.4135742V20zM257.9311523,30.3447266v51.7236328h51.7241211V30.3447266H257.9311523zM268.2758789,40.6894531h31.034668v31.0351563h-31.034668V40.6894531zM309.6552734,102.7587891H320v20.6894531h-10.3447266V102.7587891zM237.2412109,237.2421875v31.0332031h31.034668v-31.0332031H237.2412109zM247.5864258,247.5878906h10.3447266v10.34375h-10.3447266V247.5878906zM247.5864258,278.6210938v10.3447266h10.3447266v-10.3447266H247.5864258zM40.6894531,268.2753906h31.034668v31.0351563h-31.034668V268.2753906zM30.3452148,257.9316406V309.65625h51.7241211v-51.7246094H30.3452148zM20,247.5878906h72.4135742V320H20V247.5878906zM20,123.4482422h10.3452148v10.3447266h10.3442383v20.6894531h10.3447266v-10.34375h10.3452148v10.34375H51.0341797v10.3457031H40.6894531v41.3789063H30.3452148v31.0351563H20v-41.3789063h10.3452148v-20.6904297H20V164.828125h20.6894531v-10.3457031H30.3452148v-20.6894531H20V123.4482422z"/>
<path fill="#c00" d="M18,31.6464844v50.7675781c0,6.6171875,5.3833008,12,12,12h52.4135742c6.6166992,0,12-5.3828125,12-12V30c0-6.6171875-5.3833008-12-12-12H20c-1.1044922,0-2,0.8955078-2,2c0,0.8457031,0.5263672,1.5644531,1.2675781,1.8574219c-1.7197266,4.1435547-4.2324219,8.7871094-6.8754883,11.8183594L18,31.6464844zM82.4135742,22c4.4111328,0,8,3.5888672,8,8v52.4140625c0,4.4111328-3.5888672,8-8,8H30c-4.4111328,0-8-3.5888672-8-8V31.6464844l5.609375,2.0292969C24.9960938,30.6777344,22.5136719,26.1074219,20.7949219,22H82.4135742zM40.3452148,84.0683594h31.7241211c6.6166992,0,12-5.3828125,12-12V40.3447266c0-6.6162109-5.3833008-12-12-12H41.9921875l2.0288086-5.609375c-3.0317383,2.6435547-7.6748047,5.1552734-11.8188477,6.8759766c-0.2929688-0.7402344-1.0117188-1.2666016-1.8569336-1.2666016c-1.1044922,0-2,0.8955078-2,2v41.7236328C28.3452148,78.6855469,33.7285156,84.0683594,40.3452148,84.0683594zM32.3452148,31.1386719c4.1079102,1.71875,8.6782227,4.2011719,11.6757813,6.8144531l-2.0288086-5.6083984h30.0771484c4.4111328,0,8,3.5888672,8,8v31.7236328c0,4.4121094-3.5888672,8-8,8H40.3452148c-4.4111328,0-8-3.5878906-8-8V31.1386719zM38.6894531,52.3359375v9.3886719c0,6.6162109,5.3833008,12,12,12h11.034668c6.6166992,0,12-5.3837891,12-12V50.6894531c0-6.6171875-5.3833008-12-12-12h-21.034668c-1.1044922,0-2,0.8955078-2,2c0,0.8457031,0.5263672,1.5644531,1.2675781,1.8574219c-1.7197266,4.1435547-4.2324219,8.7871094-6.8754883,11.8183594L38.6894531,52.3359375zM61.7241211,42.6894531c4.4111328,0,8,3.5888672,8,8v11.0351563c0,4.4101563-3.5888672,8-8,8h-11.034668c-4.4111328,0-8-3.5898438-8-8v-9.3886719l5.609375,2.0292969c-2.6132813-2.9980469-5.0957031-7.5683594-6.8144531-11.6757813H61.7241211zM314.8271484,142.1386719c-1.7490234,0-3.171875-1.4238281-3.171875-3.1728516c0-3.9550781-3.2167969-7.1728516-7.171875-7.1728516s-7.1728516,3.2177734-7.1728516,7.1728516c0,1.7490234-1.4233398,3.1728516-3.1723633,3.1728516c-3.9550781,0-7.1723633,3.2167969-7.1723633,7.171875c0,1.1191406-3.0371094,3.171875-8,3.171875h-0.6899414c-6.8413086,0-12,3.0839844-12,7.1738281c0,1.7480469-1.4233398,3.171875-3.1723633,3.171875s-3.1723633-1.4238281-3.1723633-3.171875c0-3.9550781-3.2172852-7.1738281-7.1723633-7.1738281c-1.7490234,0-3.1723633-1.4228516-3.1723633-3.171875s1.4233398-3.171875,3.1723633-3.171875s3.1723633,1.4228516,3.1723633,3.171875c0,3.9550781,3.2172852,7.171875,7.1723633,7.171875c4.0888672,0,7.1723633-5.1582031,7.1723633-12v-0.6894531c0-6.8408203-3.0834961-12-7.1723633-12c-1.7490234,0-3.1723633-1.4228516-3.1723633-3.171875c0-1.1191406,3.0371094-3.1728516,8-3.1728516h0.6894531c4.9628906,0,8,2.0537109,8,3.1728516c0,3.9550781,3.2172852,7.171875,7.1723633,7.171875s7.1728516-3.2167969,7.1728516-7.171875c0-1.75,1.4233398-3.1728516,3.1723633-3.1728516c3.9555664,0,7.1723633-3.2177734,7.1723633-7.1728516c0-4.0878906-5.1586914-7.171875-12-7.171875h-0.6899414c-4.9628906,0-8-2.0537109-8-3.171875c0-4.0898438-5.1586914-7.1728516-12-7.1728516h-0.6894531c-6.8413086,0-12,3.0830078-12,7.1728516c0,1.1181641-3.0371094,3.171875-8,3.171875h-0.6899414c-6.8413086,0-12,3.0839844-12,7.171875c0,1.75-1.4233398,3.1728516-3.1723633,3.1728516c-3.9550781,0-7.1723633,3.2177734-7.1723633,7.1728516s3.2172852,7.171875,7.1723633,7.171875c1.1181641,0,3.1723633,3.0371094,3.1723633,8v0.6894531c0,4.9628906-2.0541992,8-3.1723633,8c-1.7490234,0-3.1723633-1.4228516-3.1723633-3.171875c0-3.9550781-3.2172852-7.171875-7.171875-7.171875c-4.0888672,0-7.1723633,5.1582031-7.1723633,12v0.6894531c0,6.8417969,3.0834961,12,7.1723633,12c1.7490234,0,3.171875,1.4238281,3.171875,3.171875c0,1.1191406-3.0371094,3.1728516-8,3.1728516h-0.6894531c-4.4111328,0-8-3.5888672-8-8v-11.0341797c0-4.9628906,2.0541992-8,3.1728516-8c4.0888672,0,7.1723633-5.1591797,7.1723633-12v-0.6904297c0-6.8408203-3.0834961-12-7.1723633-12c-4.0893555,0-7.1728516,5.1591797-7.1728516,12v0.6904297c0,4.9628906-2.0537109,8-3.1723633,8s-3.1723633-3.0371094-3.1723633-8v-0.6904297c0-4.9628906,2.0537109-8,3.1723633-8c3.9550781,0,7.1723633-3.2177734,7.1723633-7.1728516c0-1.1181641,3.0371094-3.171875,8-3.171875h0.6894531c6.8413086,0,12-3.0839844,12-7.171875c0-4.0898438-5.1586914-7.1728516-12-7.1728516h-0.6894531c-6.8413086,0-12,3.0830078-12,7.1728516c0,1.1181641-3.0371094,3.171875-8,3.171875h-0.6899414c-6.8413086,0-12,3.0839844-12,7.171875c0,1.75-1.4233398,3.1728516-3.1723633,3.1728516s-3.1723633-1.4228516-3.1723633-3.1728516c0-3.9550781-3.2172852-7.171875-7.1723633-7.171875c-4.0888672,0-7.1723633,5.1582031-7.1723633,12v0.6894531c0,6.8417969,3.0834961,12,7.1723633,12c1.7490234,0,3.1723633,1.4238281,3.1723633,3.1728516S171.7490234,142.1386719,170,142.1386719c-3.9550781,0-7.1723633,3.2167969-7.1723633,7.171875s3.2172852,7.171875,7.1723633,7.171875c1.1186523,0,3.1723633,3.0371094,3.1723633,8v11.0351563c0,6.8408203,3.0834961,12,7.1723633,12c1.7490234,0,3.1723633,1.4228516,3.1723633,3.171875c0,3.9550781,3.2172852,7.1738281,7.1723633,7.1738281s7.1728516-3.21875,7.1728516-7.1738281s-3.2177734-7.171875-7.1728516-7.171875c-1.1186523,0-3.1723633-3.0371094-3.1723633-8v-11.0351563c0-4.9628906,2.0537109-8,3.1723633-8s3.1728516,3.0371094,3.1728516,8v11.0351563c0,6.6162109,5.3833008,12,12,12h11.0341797c4.9628906,0,8,2.0537109,8,3.171875c0,1.1191406-3.0371094,3.1738281-8,3.1738281h-0.6894531c-6.8413086,0-12,3.0830078-12,7.171875s5.1586914,7.171875,12,7.171875h0.6894531c4.9628906,0,8,2.0546875,8,3.171875c0,3.9550781,3.2172852,7.1728516,7.1723633,7.1728516s7.1723633-3.2177734,7.1723633-7.1728516c0-1.7480469,1.4233398-3.171875,3.1728516-3.171875c1.1181641,0,3.1723633,3.0371094,3.1723633,8v0.6904297c0,4.4111328-3.5888672,8-8,8h-0.6899414c-6.6166992,0-12,5.3837891-12,12v0.6904297c0,4.9628906-2.0537109,8-3.171875,8c-1.7490234,0-3.1723633-1.4238281-3.1723633-3.1738281c0-3.9550781-3.2172852-7.171875-7.1723633-7.171875c-1.7495117,0-3.1728516-1.4238281-3.1728516-3.171875c0-3.9550781-3.2172852-7.1728516-7.1723633-7.1728516s-7.1723633,3.2177734-7.1723633,7.1728516c0,1.7480469-1.4233398,3.171875-3.1728516,3.171875c-1.1186523,0-3.1723633-3.0371094-3.1723633-8v-0.6904297c0-4.9628906,2.0537109-8,3.1723633-8c3.9550781,0,7.1728516-3.2177734,7.1728516-7.1728516c0-3.9541016-3.2177734-7.171875-7.1728516-7.171875c-1.7490234,0-3.1723633-1.4228516-3.1723633-3.171875c0-3.9550781-3.2172852-7.171875-7.1723633-7.171875s-7.1723633,3.2167969-7.1723633,7.171875c0,1.7490234-1.4233398,3.171875-3.1723633,3.171875s-3.1723633-1.4228516-3.1723633-3.171875s1.4233398-3.171875,3.1723633-3.171875c3.9550781,0,7.1723633-3.21875,7.1723633-7.1738281s-3.2172852-7.171875-7.1723633-7.171875c-1.1186523,0-3.1723633-3.0371094-3.1723633-8v-11.0351563c0-6.8408203-3.0834961-12-7.1723633-12s-7.1723633,5.1591797-7.1723633,12v31.7246094c0,4.9628906-2.0537109,8-3.1723633,8s-3.1728516-3.0371094-3.1728516-8v-31.7246094c0-4.9628906,2.0541992-8,3.1728516-8c3.9550781,0,7.1723633-3.2167969,7.1723633-7.171875s-3.2172852-7.171875-7.1723633-7.171875c-1.7495117,0-3.1728516-1.4238281-3.1728516-3.1728516s1.4233398-3.1728516,3.1728516-3.1728516c4.0888672,0,7.1723633-5.1582031,7.1723633-12v-0.6894531c0-4.9628906,2.0541992-8,3.1723633-8c4.0888672,0,7.1723633-5.1582031,7.1723633-12v-0.6894531c0-4.9628906,2.0537109-8,3.1723633-8c3.9550781,0,7.1723633-3.2167969,7.1723633-7.171875S173.9550781,80.0683594,170,80.0683594s-7.1723633,3.21875-7.1723633,7.1738281c0,1.7480469-1.4233398,3.171875-3.1723633,3.171875c-1.1181641,0-3.1723633-3.0371094-3.1723633-8v-0.6894531c0-4.9628906,2.0541992-8,3.1723633-8c3.9550781,0,7.1723633-3.2177734,7.1723633-7.1728516s-3.2172852-7.1728516-7.1723633-7.1728516c-1.7490234,0-3.1723633-1.4228516-3.1723633-3.171875c0-3.9550781-3.2172852-7.171875-7.1723633-7.171875c-1.1186523,0-3.1728516-3.0371094-3.1728516-8V30c0-6.8417969-3.0834961-12-7.1723633-12c-3.9550781,0-7.1723633,3.2167969-7.1723633,7.171875c0,1.75-1.4228516,3.1728516-3.171875,3.1728516s-3.1723633-1.4228516-3.1723633-3.1728516c0-4.0878906-5.1586914-7.171875-12-7.171875h-10.6899414c-1.1044922,0-2,0.8955078-2,2s0.8955078,2,2,2h0.140625c0.2358398,4.4785156-0.027832,9.7470703-1.1035156,13.6191406l4.3647461-4.4326172c1.9389648,0.7373047,4.2314453,1.1582031,6.5981445,1.1582031h0.6899414c4.4111328,0,8,3.5888672,8,8v0.6904297c0,4.9628906-2.0541992,8-3.1723633,8c-3.9550781,0-7.1728516,3.2167969-7.1728516,7.171875c0,1.7490234-1.4233398,3.171875-3.1723633,3.171875c-4.0888672,0-7.1723633,5.1591797-7.1723633,12v11.0351563c0,6.8417969,3.0834961,12,7.1723633,12s7.1723633-5.1582031,7.1723633-12V71.3789063c0-4.9628906,2.0541992-8,3.1728516-8c3.9550781,0,7.1723633-3.2167969,7.1723633-7.171875c0-1.7490234,1.4233398-3.171875,3.1723633-3.171875s3.171875,1.4228516,3.171875,3.171875s-1.4228516,3.171875-3.171875,3.171875c-4.0888672,0-7.1723633,5.1591797-7.1723633,12v11.0351563c0,6.8417969,3.0834961,12,7.1723633,12s7.171875-5.1582031,7.171875-12v-0.6894531c0-4.9628906,2.0537109-8,3.1723633-8s3.1723633,3.0371094,3.1723633,8v21.3789063c0,4.9628906-2.0537109,8-3.1723633,8c-3.9550781,0-7.1723633,3.2167969-7.1723633,7.171875c0,1.75-1.4228516,3.1728516-3.171875,3.1728516c-1.1181641,0-3.1723633-3.0371094-3.1723633-8v-0.6894531c0-6.8408203-3.0834961-12-7.1723633-12c-3.9550781,0-7.1728516,3.2177734-7.1728516,7.1728516c0,1.7480469-1.4233398,3.171875-3.1723633,3.171875s-3.1723633-1.4238281-3.1723633-3.171875c0-4.0898438-5.1586914-7.1728516-12-7.1728516H30.3452148c-1.1044922,0-2,0.8955078-2,2s0.8955078,2,2,2h0.1411133c0.2353516,4.4785156-0.0283203,9.7470703-1.1040039,13.6201172l4.3647461-4.4335938c1.9389648,0.7363281,4.2314453,1.1582031,6.5981445,1.1582031h0.6889648c4.9628906,0,8,2.0537109,8,3.171875c0,3.9550781,3.2177734,7.1728516,7.1728516,7.1728516s7.1723633-3.2177734,7.1723633-7.1728516c0-1.1181641,3.0371094-3.171875,8-3.171875h21.3793945c4.9628906,0,8,2.0537109,8,3.171875c0,1.1191406-3.0371094,3.1728516-8,3.1728516h-0.6894531c-6.8413086,0-12,3.0830078-12,7.1728516c0,4.0888672,5.1586914,7.171875,12,7.171875h0.6894531c6.8413086,0,12-3.0830078,12-7.171875c0-1.75,1.4233398-3.1728516,3.1723633-3.1728516s3.1723633,1.4228516,3.1723633,3.1728516c0,4.0888672,5.1586914,7.171875,12,7.171875h0.6894531c4.9628906,0,8,2.0546875,8,3.1728516s-3.0371094,3.1728516-8,3.1728516h-0.6894531c-4.9628906,0-8-2.0546875-8-3.1728516c0-3.9550781-3.2172852-7.1728516-7.1723633-7.1728516s-7.1723633,3.2177734-7.1723633,7.1728516c0,1.1181641-3.0371094,3.1728516-8,3.1728516h-0.6894531c-6.8413086,0-12,3.0830078-12,7.171875c0,3.9550781,3.2172852,7.171875,7.171875,7.171875c1.7490234,0,3.1723633,1.4238281,3.1723633,3.1738281c0,1.1171875-3.0371094,3.171875-8,3.171875h-0.6894531c-6.8413086,0-12,3.0839844-12,7.171875c0,1.75-1.4233398,3.1728516-3.1723633,3.1728516c-3.9550781,0-7.1723633,3.2177734-7.1723633,7.1728516c0,3.9541016,3.2172852,7.171875,7.1723633,7.171875c1.1186523,0,3.1723633,3.0371094,3.1723633,8v0.6894531c0,4.9628906-2.0537109,8-3.1723633,8c-1.7490234,0-3.1723633-1.4228516-3.1723633-3.171875c0-3.9550781-3.2172852-7.171875-7.1723633-7.171875c-4.0893555,0-7.1728516,5.1582031-7.1728516,12v0.6884766c0,4.9628906-2.0537109,8-3.1723633,8c-4.0888672,0-7.1723633,5.1591797-7.1723633,12v0.6904297c0,6.8408203,3.0834961,12,7.1723633,12c3.9550781,0,7.1723633-3.2177734,7.1723633-7.171875c0-1.75,1.4233398-3.1728516,3.1728516-3.1728516c1.7490234,0,3.1723633,1.4228516,3.1723633,3.1728516c0,3.9541016,3.2172852,7.171875,7.1723633,7.171875c4.0888672,0,7.1723633-5.1591797,7.1723633-12v-11.0351563c0-4.9628906,2.0537109-8,3.1723633-8c1.7495117,0,3.1728516,1.4238281,3.1728516,3.171875c0,4.0898438,5.1586914,7.1728516,12,7.1728516h0.6894531c6.8413086,0,12-3.0830078,12-7.1728516c0-4.0878906-5.1586914-7.171875-12-7.171875h-0.6894531c-4.9628906,0-8-2.0537109-8-3.171875s3.0371094-3.171875,8-3.171875h0.6894531c6.8413086,0,12-3.0839844,12-7.1738281c0-4.0888672-5.1586914-7.171875-12-7.171875h-0.6894531c-4.9628906,0-8-2.0546875-8-3.171875c0-1.75,1.4228516-3.1728516,3.171875-3.1728516c3.9550781,0,7.1723633-3.2177734,7.1723633-7.1728516c0-1.7480469,1.4233398-3.171875,3.1723633-3.171875c3.9550781,0,7.1728516-3.2167969,7.1728516-7.171875c0-1.1191406,3.0371094-3.1738281,8-3.1738281h0.6899414c4.9628906,0,8,2.0546875,8,3.1738281c0,1.1171875-3.0371094,3.171875-8,3.171875h-0.6899414c-6.8413086,0-12,3.0839844-12,7.171875c0,4.0898438,5.1586914,7.1728516,12,7.1728516h0.6899414c6.8413086,0,12-3.0830078,12-7.1728516c0-1.7480469,1.4233398-3.171875,3.1723633-3.171875s3.171875,1.4238281,3.171875,3.171875c0,1.75-1.4228516,3.1728516-3.171875,3.1728516c-3.9550781,0-7.1723633,3.2177734-7.1723633,7.1728516c0,1.7480469-1.4233398,3.171875-3.1723633,3.171875c-3.9550781,0-7.1728516,3.2167969-7.1728516,7.171875c0,4.0898438,5.1586914,7.1738281,12,7.1738281h0.6894531c4.9628906,0,8,2.0537109,8,3.171875c0,3.9550781,3.2172852,7.171875,7.1723633,7.171875c1.7490234,0,3.1723633,1.4238281,3.1723633,3.171875c0,4.0898438,5.1586914,7.1728516,12,7.1728516h0.6899414c4.9628906,0,8,2.0537109,8,3.1728516c0,1.75-1.4233398,3.1728516-3.1723633,3.1728516c-3.9550781,0-7.1723633,3.2177734-7.1723633,7.1728516c0,1.7480469-1.4233398,3.171875-3.1723633,3.171875c-1.1186523,0-3.1728516-3.0371094-3.1728516-8v-0.6904297c0-6.8408203-3.0834961-12-7.1723633-12c-3.9550781,0-7.1723633,3.2177734-7.1723633,7.1728516c0,1.75-1.4228516,3.1728516-3.171875,3.1728516c-3.9550781,0-7.1723633,3.2177734-7.1723633,7.1728516c0,1.7480469-1.4233398,3.171875-3.1723633,3.171875c-1.7495117,0-3.1728516-1.4238281-3.1728516-3.171875c0-1.75,1.4233398-3.1728516,3.1728516-3.1728516c4.0888672,0,7.1723633-5.1591797,7.1723633-12v-0.6904297c0-6.8408203-3.0834961-12-7.1723633-12c-3.9550781,0-7.1728516,3.2177734-7.1728516,7.171875c0,1.75-1.4233398,3.1728516-3.1723633,3.1728516c-3.9550781,0-7.1723633,3.2177734-7.1723633,7.1728516c0,1.1191406-3.0371094,3.1728516-8,3.1728516H82.0693359c-1.1044922,0-2,0.8955078-2,2s0.8955078,2,2,2h0.1411133c0.2358398,4.4785156-0.0273438,9.7470703-1.1030273,13.6201172l4.3642578-4.4335938c1.9384766,0.7363281,4.230957,1.1582031,6.5976563,1.1582031h0.6894531c4.4111328,0,8,3.5878906,8,8V299.65625c0,6.8408203,3.0834961,12,7.1723633,12s7.1723633-5.1591797,7.1723633-12v-31.7246094c0-4.9628906,2.0541992-8,3.1728516-8s3.1723633,3.0371094,3.1723633,8v0.6894531c0,6.8417969,3.0834961,12,7.1723633,12c1.7490234,0,3.171875,1.4238281,3.171875,3.171875c0,1.75-1.4228516,3.1728516-3.171875,3.1728516c-4.0888672,0-7.1723633,5.1591797-7.1723633,12v0.6904297c0,6.8408203,3.0834961,12,7.1723633,12c1.7490234,0,3.171875,1.421875,3.171875,3.171875c0,3.9550781,3.2172852,7.171875,7.1723633,7.171875s7.1723633-3.2167969,7.1723633-7.171875s-3.2172852-7.171875-7.1723633-7.171875c-1.1186523,0-3.1723633-3.0371094-3.1723633-8v-0.6904297c0-4.9628906,2.0537109-8,3.1723633-8c1.7490234,0,3.1723633,1.4228516,3.1723633,3.1728516c0,3.9550781,3.2177734,7.171875,7.1728516,7.171875c1.7490234,0,3.1723633,1.4238281,3.1723633,3.1728516c0,3.9550781,3.2172852,7.1728516,7.1723633,7.1728516c1.7490234,0,3.1723633,1.421875,3.1723633,3.171875C162.8276367,318.7832031,166.0449219,322,170,322c4.0888672,0,7.1723633-5.1582031,7.1723633-12v-11.0341797c0-4.4111328,3.5888672-8,8-8h0.6899414c6.8413086,0,12-3.0830078,12-7.1728516c0-4.0878906-5.1586914-7.171875-12-7.171875h-0.6899414c-4.9628906,0-8-2.0537109-8-3.171875c0-3.9550781-3.2172852-7.1738281-7.1723633-7.1738281c-4.0888672,0-7.1723633,5.1591797-7.1723633,12v11.0351563c0,4.9628906-2.0541992,8-3.1723633,8c-1.7490234,0-3.1723633-1.4228516-3.1723633-3.171875c0-3.9550781-3.2172852-7.1728516-7.1723633-7.1728516c-1.7495117,0-3.1728516-1.4228516-3.1728516-3.1728516c0-1.7480469,1.4233398-3.171875,3.1728516-3.171875c3.9550781,0,7.1723633-3.2167969,7.1723633-7.171875c0-1.75,1.4233398-3.1738281,3.1723633-3.1738281c3.9550781,0,7.1723633-3.2167969,7.1723633-7.171875s-3.2172852-7.171875-7.1723633-7.171875s-7.1723633,3.2167969-7.1723633,7.171875c0,1.1191406-3.0371094,3.171875-8,3.171875h-0.6899414c-4.4111328,0-8-3.5878906-8-8v-0.6875c0-4.4121094,3.5888672-8,8-8h11.034668c4.9628906,0,8,2.0527344,8,3.171875c0,4.0878906,5.1586914,7.171875,12,7.171875h0.6894531c4.9628906,0,8,2.0537109,8,3.171875c0,3.9550781,3.2172852,7.171875,7.1723633,7.171875s7.1728516-3.2167969,7.1728516-7.171875s-3.2177734-7.171875-7.1728516-7.171875c-1.7490234,0-3.1723633-1.4238281-3.1723633-3.171875c0-3.9550781-3.2172852-7.171875-7.1723633-7.171875c-1.7490234,0-3.1723633-1.4238281-3.1723633-3.1738281c0-1.7490234,1.4233398-3.171875,3.1723633-3.171875s3.1723633,1.4228516,3.1723633,3.171875c0,3.9550781,3.2172852,7.1738281,7.1723633,7.1738281s7.1728516-3.21875,7.1728516-7.1738281c0-1.7490234,1.4233398-3.171875,3.1723633-3.171875c1.1186523,0,3.1723633,3.0371094,3.1723633,8v0.6894531c0,6.8417969,3.0834961,12,7.1728516,12c1.7490234,0,3.1723633,1.4238281,3.1723633,3.171875c0,1.75-1.4233398,3.171875-3.1723633,3.171875c-3.9550781,0-7.1728516,3.21875-7.1728516,7.1738281s3.2177734,7.171875,7.1728516,7.171875s7.1723633-3.2167969,7.1723633-7.171875c0-1.75,1.4233398-3.1738281,3.1723633-3.1738281s3.171875,1.4238281,3.171875,3.1738281c0,1.7490234-1.4228516,3.171875-3.171875,3.171875c-3.9550781,0-7.1723633,3.2177734-7.1723633,7.171875c0,1.1191406-3.0371094,3.1728516-8,3.1728516h-0.6899414c-6.8413086,0-12,3.0830078-12,7.1728516c0,1.7490234-1.4233398,3.171875-3.1728516,3.171875c-3.9550781,0-7.1723633,3.2177734-7.1723633,7.1728516s3.2172852,7.1728516,7.1723633,7.1728516s7.1728516-3.2177734,7.1728516-7.1728516c0-1.7490234,1.4233398-3.1728516,3.1723633-3.1728516s3.1723633,1.4238281,3.1723633,3.1728516s-1.4233398,3.1728516-3.1723633,3.1728516c-3.9550781,0-7.1723633,3.2167969-7.1723633,7.171875c0,4.0878906,5.1586914,7.171875,12,7.171875h11.0341797c6.8413086,0,12-3.0839844,12-7.171875c0-3.9550781-3.2172852-7.171875-7.171875-7.171875c-1.7490234,0-3.1723633-1.4238281-3.1723633-3.1728516s1.4233398-3.1728516,3.1723633-3.1728516s3.171875,1.4238281,3.171875,3.1728516c0,3.9550781,3.2172852,7.1728516,7.1723633,7.1728516c1.7490234,0,3.1723633,1.421875,3.1723633,3.171875c0,4.0878906,5.1586914,7.171875,12,7.171875h0.6899414c6.8413086,0,12-3.0839844,12-7.171875c0-3.9550781-3.2172852-7.171875-7.1723633-7.171875c-1.7490234,0-3.1723633-1.4238281-3.1723633-3.1728516c0-1.1181641,3.0371094-3.1728516,8-3.1728516h0.6894531c4.4111328,0,8,3.5898438,8,8V310c0,6.6171875,5.3833008,12,12,12h11.034668c6.8413086,0,12-3.0839844,12-7.171875c0-1.75,1.4228516-3.171875,3.1728516-3.171875c4.0888672,0,7.171875-5.1591797,7.171875-12v-0.6904297c0-6.8408203-3.0830078-12-7.171875-12s-7.1728516,5.1591797-7.1728516,12v0.6904297c0,4.9628906-2.0541992,8-3.1723633,8c-1.7490234,0-3.1723633-1.4238281-3.1723633-3.1728516c0-3.9550781-3.2177734-7.1728516-7.1728516-7.1728516c-1.7490234,0-3.1723633-1.4228516-3.1723633-3.171875c0-3.9550781-3.2172852-7.1728516-7.1723633-7.1728516c-1.7490234,0-3.1723633-1.4228516-3.1723633-3.1728516c0-1.7480469,1.4233398-3.171875,3.1723633-3.171875s3.1723633,1.4238281,3.1723633,3.171875c0,3.9550781,3.2172852,7.1728516,7.1723633,7.1728516s7.1728516-3.2177734,7.1728516-7.1728516c0-1.1171875,3.0371094-3.171875,8-3.171875h0.6894531c6.8408203,0,12-3.0830078,12-7.171875c0-1.75,1.4228516-3.1738281,3.171875-3.1738281c3.9550781,0,7.1728516-3.2167969,7.1728516-7.171875s-3.2177734-7.171875-7.1728516-7.171875s-7.171875,3.2167969-7.171875,7.171875c0,1.1191406-3.0371094,3.171875-8,3.171875h-0.6894531c-4.9628906,0-8-2.0527344-8-3.171875c0-3.9550781-3.2177734-7.171875-7.1728516-7.171875c-1.7490234,0-3.1723633-1.4238281-3.1723633-3.171875c0-1.75,1.4233398-3.171875,3.1723633-3.171875c3.9550781,0,7.1728516-3.21875,7.1728516-7.1738281c0-1.7490234,1.4233398-3.171875,3.1723633-3.171875s3.1723633,1.4228516,3.1723633,3.171875c0,4.0898438,5.1591797,7.1738281,12,7.1738281H310c6.6171875,0,12-5.3837891,12-12v-11.0361328c0-6.6162109-5.3828125-12-12-12h-0.6894531c-6.8408203,0-12,3.0830078-12,7.1728516c0,1.75-1.4233398,3.1728516-3.1723633,3.1728516s-3.1723633-1.4228516-3.1723633-3.1728516s1.4233398-3.1728516,3.1723633-3.1728516c3.9555664,0,7.1723633-3.2177734,7.1723633-7.1728516c0-1.1171875,3.0371094-3.171875,8-3.171875H310c6.6171875,0,12-5.3828125,12-12v-11.0341797c0-6.8408203-3.0839844-12-7.1728516-12s-7.171875,5.1591797-7.171875,12v0.6904297c0,4.9628906-2.0537109,8-3.171875,8c-1.75,0-3.1728516-1.4238281-3.1728516-3.1738281c0-3.9550781-3.2167969-7.171875-7.1723633-7.171875c-1.7490234,0-3.1723633-1.4238281-3.1723633-3.171875c0-4.0898438-5.1586914-7.1728516-12-7.1728516h-0.6899414c-6.8413086,0-12,3.0830078-12,7.1728516c0,3.9541016,3.2172852,7.171875,7.1723633,7.171875c1.7490234,0,3.1723633,1.4228516,3.1723633,3.171875c0,1.1191406-3.0371094,3.1738281-8,3.1738281h-21.3793945c-4.4111328,0-8-3.5898438-8-8v-0.6904297c0-4.9628906,2.0541992-8,3.1728516-8c3.9550781,0,7.1723633-3.2177734,7.1723633-7.1728516c0-1.7480469,1.4233398-3.171875,3.1723633-3.171875s3.1723633,1.4238281,3.1723633,3.171875c0,3.9550781,3.2172852,7.1728516,7.1723633,7.1728516s7.1723633-3.2177734,7.1723633-7.1728516c0-1.1171875,3.0371094-3.171875,8-3.171875h0.6899414c6.8413086,0,12-3.0839844,12-7.171875c0-1.75,1.4233398-3.1738281,3.1723633-3.1738281s3.1723633,1.4238281,3.1723633,3.1738281c0,4.0878906,5.1591797,7.171875,12,7.171875H310c6.6171875,0,12-5.3828125,12-12v-0.6894531C322,147.296875,318.9160156,142.1386719,314.8271484,142.1386719zM318,154.828125c0,4.4111328-3.5888672,8-8,8h-0.6894531c-4.9628906,0-8-2.0546875-8-3.171875c0-3.9550781-3.2167969-7.1738281-7.1723633-7.1738281c-3.9550781,0-7.1723633,3.21875-7.1723633,7.1738281c0,1.1171875-3.0371094,3.171875-8,3.171875h-0.6899414c-6.8413086,0-12,3.0839844-12,7.171875c0,1.75-1.4233398,3.1728516-3.1723633,3.1728516S259.9311523,171.75,259.9311523,170c0-3.9550781-3.2172852-7.171875-7.1723633-7.171875s-7.1723633,3.2167969-7.1723633,7.171875c0,1.75-1.4233398,3.1728516-3.1723633,3.1728516c-4.0893555,0-7.1728516,5.1591797-7.1728516,12v0.6904297c0,6.6162109,5.3833008,12,12,12h21.3793945c6.8413086,0,12-3.0839844,12-7.1738281c0-3.9550781-3.2172852-7.171875-7.1723633-7.171875c-1.7490234,0-3.1723633-1.4238281-3.1723633-3.171875c0-1.1191406,3.0371094-3.1728516,8-3.1728516h0.6899414c4.9628906,0,8,2.0537109,8,3.1728516c0,3.9541016,3.2172852,7.171875,7.1723633,7.171875c1.7490234,0,3.1723633,1.4228516,3.1723633,3.171875c0,3.9550781,3.2177734,7.1738281,7.1728516,7.1738281c4.0888672,0,7.171875-5.1591797,7.171875-12v-0.6904297c0-4.9628906,2.0537109-8,3.171875-8s3.1728516,3.0371094,3.1728516,8v11.0341797c0,4.4121094-3.5888672,8-8,8h-0.6894531c-6.8408203,0-12,3.0839844-12,7.171875c0,1.75-1.4233398,3.1728516-3.1723633,3.1728516c-3.9550781,0-7.1723633,3.2177734-7.1723633,7.1728516s3.2172852,7.1728516,7.1723633,7.1728516c3.9555664,0,7.1723633-3.2177734,7.1723633-7.1728516c0-1.1191406,3.0371094-3.1728516,8-3.1728516H310c4.4111328,0,8,3.5888672,8,8v11.0361328c0,4.4101563-3.5888672,8-8,8h-0.6894531c-4.9628906,0-8-2.0546875-8-3.1738281c0-3.9550781-3.2167969-7.171875-7.1723633-7.171875c-3.9550781,0-7.1723633,3.2167969-7.1723633,7.171875c0,1.75-1.4233398,3.1738281-3.1728516,3.1738281c-3.9550781,0-7.1723633,3.2167969-7.1723633,7.171875s3.2172852,7.171875,7.1723633,7.171875c1.7495117,0,3.1728516,1.4238281,3.1728516,3.171875c0,4.0888672,5.1586914,7.171875,12,7.171875h0.6894531c6.8408203,0,12-3.0830078,12-7.171875c0-1.7480469,1.4228516-3.171875,3.171875-3.171875c1.75,0,3.1728516,1.4238281,3.1728516,3.171875c0,1.75-1.4228516,3.171875-3.1728516,3.171875c-3.9550781,0-7.171875,3.21875-7.171875,7.1738281c0,1.1181641-3.0371094,3.171875-8,3.171875h-0.6894531c-6.8413086,0-12,3.0839844-12,7.171875c0,1.75-1.4233398,3.1728516-3.1728516,3.1728516c-1.7490234,0-3.1723633-1.4228516-3.1723633-3.1728516c0-3.9541016-3.2172852-7.171875-7.1723633-7.171875s-7.1723633,3.2177734-7.1723633,7.171875c0,3.9550781,3.2172852,7.1728516,7.1723633,7.1728516c1.7490234,0,3.1723633,1.4228516,3.1723633,3.1728516c0,3.9550781,3.2172852,7.171875,7.1723633,7.171875c1.7495117,0,3.1728516,1.4238281,3.1728516,3.1728516c0,3.9550781,3.2172852,7.1728516,7.1723633,7.1728516c4.0893555,0,7.1723633-5.1591797,7.1723633-12v-0.6904297c0-4.9628906,2.0546875-8,3.1728516-8s3.171875,3.0371094,3.171875,8v0.6904297c0,4.9628906-2.0537109,8-3.171875,8c-3.9550781,0-7.1728516,3.2167969-7.1728516,7.171875c0,1.1171875-3.0371094,3.171875-8,3.171875h-11.034668c-4.4111328,0-8-3.5888672-8-8v-0.6894531c0-6.6162109-5.3833008-12-12-12h-0.6894531c-6.8413086,0-12,3.0839844-12,7.1728516c0,3.9550781,3.2172852,7.1728516,7.1723633,7.1728516c1.7490234,0,3.1723633,1.421875,3.1723633,3.171875c0,1.1171875-3.0371094,3.171875-8,3.171875h-0.6899414c-4.9628906,0-8-2.0546875-8-3.171875c0-3.9550781-3.2172852-7.171875-7.1723633-7.171875c-1.7490234,0-3.1723633-1.4238281-3.1723633-3.1728516c0-3.9550781-3.2172852-7.1728516-7.171875-7.1728516c-3.9550781,0-7.1723633,3.2177734-7.1723633,7.1728516s3.2172852,7.1728516,7.1723633,7.1728516c1.7490234,0,3.171875,1.421875,3.171875,3.171875c0,1.1171875-3.0371094,3.171875-8,3.171875h-11.0341797c-4.9628906,0-8-2.0546875-8-3.171875c0-1.75,1.4233398-3.171875,3.1723633-3.171875c3.9550781,0,7.1723633-3.2177734,7.1723633-7.1728516s-3.2172852-7.1728516-7.1723633-7.1728516s-7.1723633,3.2177734-7.1723633,7.1728516c0,1.7490234-1.4233398,3.1728516-3.1728516,3.1728516c-1.7490234,0-3.1723633-1.4238281-3.1723633-3.1728516s1.4233398-3.1728516,3.1723633-3.1728516c3.9550781,0,7.1728516-3.2167969,7.1728516-7.171875c0-1.1191406,3.0371094-3.1728516,8-3.1728516h0.6899414c6.8413086,0,12-3.0830078,12-7.1728516c0-1.7480469,1.4233398-3.171875,3.1723633-3.171875c3.9545898,0,7.171875-3.2167969,7.171875-7.171875s-3.2172852-7.1738281-7.171875-7.1738281c-3.9550781,0-7.1723633,3.21875-7.1723633,7.1738281c0,1.7490234-1.4233398,3.171875-3.1723633,3.171875c-1.7495117,0-3.1728516-1.4228516-3.1728516-3.171875c0-1.75,1.4233398-3.1738281,3.1728516-3.1738281c3.9550781,0,7.1723633-3.2167969,7.1723633-7.171875s-3.2172852-7.171875-7.1723633-7.171875c-1.1186523,0-3.1728516-3.0371094-3.1728516-8v-0.6894531c0-6.8417969-3.0834961-12-7.1723633-12c-3.9550781,0-7.1723633,3.2167969-7.1723633,7.171875c0,1.75-1.4233398,3.1738281-3.1728516,3.1738281c-1.7490234,0-3.1723633-1.4238281-3.1723633-3.1738281c0-3.9550781-3.2172852-7.171875-7.1723633-7.171875s-7.1723633,3.2167969-7.1723633,7.171875s3.2172852,7.1738281,7.1723633,7.1738281c1.7490234,0,3.1723633,1.421875,3.1723633,3.171875c0,3.9550781,3.2172852,7.171875,7.1723633,7.171875c1.7495117,0,3.1728516,1.4238281,3.1728516,3.171875c0,1.75-1.4233398,3.171875-3.1728516,3.171875c-1.7490234,0-3.1723633-1.421875-3.1723633-3.171875c0-4.0878906-5.1586914-7.171875-12-7.171875h-0.6894531c-4.9628906,0-8-2.0537109-8-3.171875c0-4.0898438-5.1586914-7.171875-12-7.171875h-11.034668c-6.6166992,0-12,5.3828125-12,12v0.6875c0,6.6171875,5.3833008,12,12,12h0.6899414c6.8413086,0,12-3.0830078,12-7.171875c0-1.7480469,1.4233398-3.171875,3.1723633-3.171875s3.1723633,1.4238281,3.1723633,3.171875c0,1.75-1.4233398,3.171875-3.1723633,3.171875c-3.9550781,0-7.1723633,3.21875-7.1723633,7.1738281c0,1.7490234-1.4233398,3.171875-3.1723633,3.171875c-3.9550781,0-7.1728516,3.2177734-7.1728516,7.171875c0,3.9550781,3.2177734,7.1728516,7.1728516,7.1728516c1.7490234,0,3.1723633,1.4228516,3.1723633,3.1728516c0,3.9550781,3.2172852,7.171875,7.1723633,7.171875c4.0888672,0,7.1723633-5.1582031,7.1723633-12v-11.0351563c0-4.9628906,2.0537109-8,3.1723633-8c1.7490234,0,3.1723633,1.4238281,3.1723633,3.1738281c0,4.0888672,5.1586914,7.171875,12,7.171875h0.6899414c4.9628906,0,8,2.0546875,8,3.171875c0,1.1191406-3.0371094,3.1728516-8,3.1728516h-0.6899414c-6.6166992,0-12,5.3837891-12,12V310c0,4.9628906-2.0537109,8-3.1723633,8c-1.7490234,0-3.1723633-1.4238281-3.1723633-3.171875c0-3.9550781-3.2172852-7.171875-7.1723633-7.171875c-1.7490234,0-3.1723633-1.4238281-3.1723633-3.1728516c0-3.9550781-3.2172852-7.1728516-7.1723633-7.1728516c-1.7495117,0-3.1728516-1.4228516-3.1728516-3.171875c0-3.9550781-3.2172852-7.1728516-7.1723633-7.1728516c-4.0888672,0-7.1723633,5.1591797-7.1723633,12v0.6904297c0,6.8408203,3.0834961,12,7.1723633,12c1.7490234,0,3.1723633,1.421875,3.1723633,3.171875c0,1.7480469-1.4233398,3.171875-3.1723633,3.171875s-3.1723633-1.4238281-3.1723633-3.171875c0-3.9550781-3.2172852-7.171875-7.171875-7.171875c-1.1186523,0-3.1723633-3.0371094-3.1723633-8v-0.6904297c0-4.9628906,2.0537109-8,3.1723633-8c3.9545898,0,7.171875-3.2177734,7.171875-7.1728516c0-3.9541016-3.2172852-7.171875-7.171875-7.171875c-1.1186523,0-3.1723633-3.0371094-3.1723633-8v-0.6894531c0-6.8417969-3.0834961-12-7.1723633-12c-4.0893555,0-7.1728516,5.1582031-7.1728516,12V299.65625c0,4.9628906-2.0537109,8-3.1723633,8c-1.1181641,0-3.1723633-3.0371094-3.1723633-8v-52.4140625c0-6.3935547-5.0292969-11.6191406-11.3369141-11.9667969c-3.0654297-1.5644531-6.3676758-3.9648438-9.152832-6.3779297h8.4897461c6.8413086,0,12-3.0830078,12-7.1728516c0-1.75,1.4233398-3.1728516,3.1723633-3.1728516c3.9550781,0,7.1723633-3.2177734,7.1723633-7.1728516c0-1.7480469,1.4233398-3.171875,3.1728516-3.171875c1.1181641,0,3.1723633,3.0371094,3.1723633,8v0.6904297c0,4.9628906-2.0541992,8-3.1723633,8c-3.9550781,0-7.1728516,3.2177734-7.1728516,7.1728516c0,3.9541016,3.2177734,7.171875,7.1728516,7.171875s7.1723633-3.2177734,7.1723633-7.171875c0-1.75,1.4233398-3.1728516,3.1723633-3.1728516c3.9545898,0,7.171875-3.2177734,7.171875-7.1728516c0-1.75,1.4233398-3.1728516,3.1723633-3.1728516c1.1186523,0,3.1723633,3.0371094,3.1723633,8v0.6904297c0,6.8408203,3.0834961,12,7.1728516,12c3.9550781,0,7.1723633-3.2177734,7.1723633-7.171875c0-1.75,1.4233398-3.1728516,3.1723633-3.1728516c3.9550781,0,7.1723633-3.2177734,7.1723633-7.1728516c0-4.0898438-5.1586914-7.1728516-12-7.1728516h-0.6899414c-4.9628906,0-8-2.0537109-8-3.1728516c0-3.9541016-3.2172852-7.171875-7.1723633-7.171875c-1.7490234,0-3.1723633-1.4228516-3.1723633-3.171875c0-4.0888672-5.1586914-7.171875-12-7.171875h-0.6894531c-4.9628906,0-8-2.0546875-8-3.1738281c0-1.7490234,1.4233398-3.171875,3.1728516-3.171875c3.9550781,0,7.1723633-3.2177734,7.1723633-7.171875c0-1.75,1.4233398-3.1728516,3.1723633-3.1728516c3.9545898,0,7.171875-3.2177734,7.171875-7.1728516s-3.2172852-7.171875-7.171875-7.171875c-3.9550781,0-7.1723633,3.2167969-7.1723633,7.171875c0,1.1191406-3.0371094,3.1728516-8,3.1728516h-0.6899414c-4.9628906,0-8-2.0537109-8-3.1728516c0-1.1171875,3.0371094-3.171875,8-3.171875h0.6899414c6.8413086,0,12-3.0839844,12-7.171875c0-4.0898438-5.1586914-7.1738281-12-7.1738281h-0.6899414c-6.8413086,0-12,3.0839844-12,7.1738281c0,1.7480469-1.4233398,3.171875-3.1728516,3.171875c-3.9550781,0-7.1723633,3.2167969-7.1723633,7.171875c0,1.75-1.4233398,3.1728516-3.1723633,3.1728516c-3.9545898,0-7.171875,3.2177734-7.171875,7.1728516c0,4.0878906,5.1586914,7.171875,12,7.171875h0.6894531c4.9628906,0,8,2.0537109,8,3.171875c0,1.1191406-3.0371094,3.1738281-8,3.1738281h-0.6894531c-6.8413086,0-12,3.0830078-12,7.171875s5.1586914,7.171875,12,7.171875h0.6894531c4.9628906,0,8,2.0546875,8,3.171875c0,1.1191406-3.0371094,3.1728516-8,3.1728516h-0.6894531c-4.9628906,0-8-2.0537109-8-3.1728516c0-3.9541016-3.2177734-7.171875-7.1728516-7.171875c-4.0888672,0-7.1723633,5.1591797-7.1723633,12v11.0351563c0,4.9628906-2.0537109,8-3.1723633,8c-1.7490234,0-3.1723633-1.4238281-3.1723633-3.171875c0-3.9550781-3.2172852-7.1728516-7.1723633-7.1728516s-7.1728516,3.2177734-7.1728516,7.1728516c0,1.7480469-1.4233398,3.171875-3.1723633,3.171875c-1.1186523,0-3.1723633-3.0371094-3.1723633-8v-0.6904297c0-4.9628906,2.0537109-8,3.1723633-8c4.0888672,0,7.1723633-5.1591797,7.1723633-12v-0.6884766c0-4.9628906,2.0541992-8,3.1728516-8c1.7490234,0,3.1723633,1.4228516,3.1723633,3.171875c0,3.9550781,3.2172852,7.171875,7.1723633,7.171875c4.0888672,0,7.1723633-5.1582031,7.1723633-12v-0.6894531c0-6.8417969-3.0834961-12-7.1723633-12c-1.7490234,0-3.1723633-1.4238281-3.1723633-3.171875c0-1.75,1.4233398-3.1728516,3.1723633-3.1728516c3.9550781,0,7.1723633-3.2177734,7.1723633-7.1728516c0-1.1171875,3.0371094-3.171875,8-3.171875h0.6894531c6.8413086,0,12-3.0839844,12-7.171875c0-3.9550781-3.2172852-7.1738281-7.1723633-7.1738281c-1.7490234,0-3.171875-1.4228516-3.171875-3.171875c0-1.1191406,3.0371094-3.171875,8-3.171875h0.6894531c6.8413086,0,12-3.0839844,12-7.1728516c0-1.7490234,1.4233398-3.1728516,3.1723633-3.1728516s3.1723633,1.4238281,3.1723633,3.1728516c0,4.0888672,5.1586914,7.1728516,12,7.1728516h0.6894531c6.8413086,0,12-3.0839844,12-7.1728516s-5.1586914-7.1728516-12-7.1728516h-0.6894531c-4.9628906,0-8-2.0537109-8-3.171875c0-3.9550781-3.2172852-7.1728516-7.1723633-7.1728516s-7.1723633,3.2177734-7.1723633,7.1728516c0,1.1181641-3.0371094,3.171875-8,3.171875h-0.6894531c-4.9628906,0-8-2.0537109-8-3.171875c0-1.1191406,3.0371094-3.1728516,8-3.1728516h0.6894531c6.8413086,0,12-3.0830078,12-7.1728516c0-4.0878906-5.1586914-7.171875-12-7.171875H71.3793945c-6.8413086,0-12,3.0839844-12,7.171875c0,1.75-1.4233398,3.1728516-3.1723633,3.1728516c-1.7495117,0-3.1728516-1.4228516-3.1728516-3.1728516c0-3.9609375-4.8476563-6.9697266-11.3710938-7.1542969c-3.0556641-1.5654297-6.34375-3.9570313-9.1186523-6.3623047h60.2143555c4.9628906,0,8,2.0537109,8,3.1728516c0,3.9550781,3.2172852,7.171875,7.1723633,7.171875s7.1723633-3.2167969,7.1723633-7.171875c0-1.75,1.4233398-3.1728516,3.1728516-3.1728516c1.1181641,0,3.1723633,3.0371094,3.1723633,8v0.6894531c0,6.8408203,3.0834961,12,7.1723633,12c3.9545898,0,7.171875-3.2177734,7.171875-7.1728516c0-1.7480469,1.4233398-3.171875,3.1723633-3.171875c4.0888672,0,7.1723633-5.1582031,7.1723633-12V81.7246094c0-6.8417969-3.0834961-12-7.1723633-12s-7.1723633,5.1582031-7.1723633,12v0.6894531c0,4.9628906-2.0537109,8-3.171875,8s-3.1723633-3.0371094-3.1723633-8V71.3789063c0-4.9628906,2.0541992-8,3.1723633-8c3.9545898,0,7.171875-3.2167969,7.171875-7.171875s-3.2172852-7.171875-7.171875-7.171875c-3.9550781,0-7.1723633,3.2167969-7.1723633,7.171875c0,1.7490234-1.4233398,3.171875-3.1723633,3.171875c-4.0893555,0-7.1728516,5.1591797-7.1728516,12v11.0351563c0,4.9628906-2.0537109,8-3.1723633,8s-3.1723633-3.0371094-3.1723633-8V71.3789063c0-4.9628906,2.0537109-8,3.1723633-8c3.9550781,0,7.1723633-3.2167969,7.1723633-7.171875c0-1.7490234,1.4233398-3.171875,3.1728516-3.171875c4.0888672,0,7.1723633-5.1591797,7.1723633-12v-0.6904297c0-6.3935547-5.0302734-11.6201172-11.3388672-11.9658203C111.0444336,26.8125,107.7431641,24.4140625,104.9580078,22h8.4907227c4.9628906,0,8,2.0546875,8,3.171875c0,3.9550781,3.2172852,7.1728516,7.1723633,7.1728516c3.9545898,0,7.171875-3.2177734,7.171875-7.1728516c0-1.7480469,1.4233398-3.171875,3.1723633-3.171875c1.1186523,0,3.1723633,3.0371094,3.1723633,8v11.0351563c0,6.8408203,3.0834961,12,7.1728516,12c1.7490234,0,3.1723633,1.4228516,3.1723633,3.171875c0,3.9550781,3.2172852,7.171875,7.1723633,7.171875c1.7490234,0,3.1723633,1.4238281,3.1723633,3.1728516s-1.4233398,3.1728516-3.1723633,3.1728516c-4.0888672,0-7.1723633,5.1582031-7.1723633,12v0.6894531c0,6.8417969,3.0834961,12,7.1723633,12c3.9550781,0,7.1723633-3.2167969,7.1723633-7.171875c0-1.75,1.4233398-3.1738281,3.1723633-3.1738281s3.1723633,1.4238281,3.1723633,3.1738281c0,1.7480469-1.4233398,3.171875-3.1723633,3.171875c-4.0888672,0-7.1723633,5.1582031-7.1723633,12v0.6894531c0,4.9628906-2.0541992,8-3.1723633,8c-4.0888672,0-7.1723633,5.1582031-7.1723633,12v0.6894531c0,4.9628906-2.0537109,8-3.1723633,8c-3.9550781,0-7.1728516,3.2177734-7.1728516,7.1728516s3.2177734,7.1728516,7.1728516,7.1728516c1.7490234,0,3.1723633,1.4228516,3.1723633,3.171875s-1.4233398,3.171875-3.1723633,3.171875c-4.0893555,0-7.1728516,5.1591797-7.1728516,12v31.7246094c0,6.8417969,3.0834961,12,7.1728516,12c4.0888672,0,7.1723633-5.1582031,7.1723633-12v-31.7246094c0-4.9628906,2.0541992-8,3.1723633-8s3.1723633,3.0371094,3.1723633,8v11.0351563c0,6.8408203,3.0834961,12,7.1723633,12c1.7490234,0,3.1723633,1.4228516,3.1723633,3.171875c0,1.75-1.4233398,3.1738281-3.1723633,3.1738281c-3.9550781,0-7.1723633,3.2167969-7.1723633,7.171875s3.2172852,7.171875,7.1723633,7.171875s7.1723633-3.2167969,7.1723633-7.171875c0-1.7490234,1.4233398-3.171875,3.1723633-3.171875s3.1723633,1.4228516,3.1723633,3.171875c0,3.9550781,3.2172852,7.171875,7.1723633,7.171875c1.7495117,0,3.1728516,1.4238281,3.1728516,3.171875c0,1.75-1.4233398,3.1728516-3.1728516,3.1728516c-4.0888672,0-7.1723633,5.1591797-7.1723633,12v0.6904297c0,6.8408203,3.0834961,12,7.1723633,12c3.9550781,0,7.1728516-3.2177734,7.1728516-7.171875c0-1.75,1.4233398-3.1728516,3.1723633-3.1728516s3.1723633,1.4228516,3.1723633,3.1728516c0,3.9541016,3.2177734,7.171875,7.1728516,7.171875c1.7490234,0,3.1723633,1.4228516,3.1723633,3.171875c0,3.9550781,3.2172852,7.1738281,7.1723633,7.1738281c4.0888672,0,7.171875-5.1591797,7.171875-12v-0.6904297c0-4.4111328,3.5888672-8,8-8h0.6899414c6.6166992,0,12-5.3837891,12-12v-0.6904297c0-6.8408203-3.0834961-12-7.1723633-12c-3.9550781,0-7.1728516,3.2177734-7.1728516,7.171875c0,1.75-1.4233398,3.1728516-3.1723633,3.1728516s-3.1723633-1.4228516-3.1723633-3.1728516c0-4.0878906-5.1586914-7.171875-12-7.171875h-0.6894531c-4.9628906,0-8-2.0527344-8-3.171875c0-1.1181641,3.0371094-3.171875,8-3.171875h0.6894531c6.8413086,0,12-3.0839844,12-7.1738281c0-4.0888672-5.1586914-7.171875-12-7.171875h-11.0341797c-4.4111328,0-8-3.5898438-8-8v-11.0351563c0-6.8408203-3.0834961-12-7.1728516-12c-4.0888672,0-7.1723633,5.1591797-7.1723633,12v11.0351563c0,6.8408203,3.0834961,12,7.1723633,12c1.7495117,0,3.1728516,1.4228516,3.1728516,3.171875c0,1.75-1.4233398,3.1738281-3.1728516,3.1738281c-1.7490234,0-3.1723633-1.4238281-3.1723633-3.1738281c0-3.9550781-3.2172852-7.171875-7.1723633-7.171875c-1.1181641,0-3.1723633-3.0371094-3.1723633-8v-11.0351563c0-6.8408203-3.0834961-12-7.1723633-12c-1.7490234,0-3.1723633-1.4228516-3.1723633-3.171875s1.4233398-3.171875,3.1723633-3.171875c3.9550781,0,7.1723633-3.2177734,7.1723633-7.1728516S173.9550781,131.7929688,170,131.7929688c-1.1186523,0-3.1723633-3.0371094-3.1723633-8v-0.6894531c0-4.9628906,2.0537109-8,3.1723633-8c1.7490234,0,3.1723633,1.4238281,3.1723633,3.171875c0,3.9550781,3.2172852,7.1728516,7.1723633,7.1728516s7.1723633-3.2177734,7.1723633-7.1728516c0-1.1181641,3.0371094-3.171875,8-3.171875h0.6899414c6.8413086,0,12-3.0839844,12-7.171875c0-1.1191406,3.0371094-3.1728516,8-3.1728516h0.6894531c4.9628906,0,8,2.0537109,8,3.1728516c0,1.1181641-3.0371094,3.171875-8,3.171875h-0.6894531c-6.8413086,0-12,3.0839844-12,7.171875c0,1.75-1.4233398,3.1728516-3.1723633,3.1728516c-4.0888672,0-7.1723633,5.1591797-7.1723633,12v0.6904297c0,6.8408203,3.0834961,12,7.1723633,12s7.1723633-5.1591797,7.1723633-12v-0.6904297c0-4.9628906,2.0541992-8,3.1728516-8s3.1723633,3.0371094,3.1723633,8v0.6904297c0,4.9628906-2.0537109,8-3.1723633,8c-4.0893555,0-7.1728516,5.1582031-7.1728516,12v11.0341797c0,6.6162109,5.3833008,12,12,12h0.6894531c6.8413086,0,12-3.0830078,12-7.1728516c0-3.9550781-3.2172852-7.171875-7.171875-7.171875c-1.1181641,0-3.1723633-3.0371094-3.1723633-8v-0.6894531c0-4.9628906,2.0541992-8,3.1723633-8c1.7490234,0,3.171875,1.4228516,3.171875,3.171875c0,3.9550781,3.2172852,7.171875,7.1723633,7.171875c4.0888672,0,7.1723633-5.1582031,7.1723633-12v-0.6894531c0-6.8408203-3.0834961-12-7.1723633-12c-1.7490234,0-3.1723633-1.4228516-3.1723633-3.171875c0-1.75,1.4233398-3.1728516,3.1723633-3.1728516c3.9550781,0,7.1723633-3.2177734,7.1723633-7.1728516c0-1.1181641,3.0371094-3.171875,8-3.171875h0.6899414c6.8413086,0,12-3.0839844,12-7.171875c0-1.1191406,3.0371094-3.1728516,8-3.1728516h0.6894531c4.9628906,0,8,2.0537109,8,3.1728516c0,4.0878906,5.1586914,7.171875,12,7.171875h0.6899414c4.9628906,0,8,2.0537109,8,3.171875c0,1.75-1.4233398,3.1728516-3.1723633,3.1728516c-3.9550781,0-7.1723633,3.2177734-7.1723633,7.1728516c0,1.7490234-1.4233398,3.171875-3.1728516,3.171875c-1.7490234,0-3.1723633-1.4228516-3.1723633-3.171875c0-4.0898438-5.1586914-7.1728516-12-7.1728516h-0.6894531c-6.8413086,0-12,3.0830078-12,7.1728516c0,3.9550781,3.2172852,7.171875,7.1723633,7.171875c1.1181641,0,3.1723633,3.0371094,3.1723633,8v0.6894531c0,4.9628906-2.0541992,8-3.1723633,8c-1.7490234,0-3.1723633-1.4228516-3.1723633-3.171875c0-3.9550781-3.2172852-7.171875-7.1723633-7.171875s-7.1723633,3.2167969-7.1723633,7.171875s3.2172852,7.171875,7.1723633,7.171875c1.7490234,0,3.1723633,1.4238281,3.1723633,3.1738281c0,3.9550781,3.2172852,7.171875,7.1723633,7.171875s7.1723633-3.2167969,7.1723633-7.171875c0-1.1191406,3.0371094-3.1738281,8-3.1738281h0.6899414c6.8413086,0,12-3.0830078,12-7.171875c0-1.7490234,1.4233398-3.171875,3.1723633-3.171875c3.9555664,0,7.1723633-3.2177734,7.1723633-7.1728516c0-1.7490234,1.4228516-3.1728516,3.1728516-3.1728516c1.7490234,0,3.171875,1.4238281,3.171875,3.1728516c0,3.9550781,3.2167969,7.1728516,7.171875,7.1728516c1.1181641,0,3.1728516,3.0371094,3.1728516,8V154.828125zM156.4135742,31.5605469c1.0014648,0.5117188,2.1035156,0.7841797,3.2416992,0.7841797c1.7490234,0,3.1723633,1.4228516,3.1723633,3.1728516c0,3.9550781,3.2172852,7.171875,7.1723633,7.171875c1.7490234,0,3.1723633,1.4238281,3.1723633,3.171875c0,3.9550781,3.2172852,7.1738281,7.1723633,7.1738281s7.1723633-3.21875,7.1723633-7.1738281s-3.2172852-7.171875-7.1723633-7.171875c-1.7490234,0-3.1723633-1.4238281-3.1723633-3.171875c0-3.9550781-3.2172852-7.1728516-7.1723633-7.1728516c-1.7490234,0-3.1723633-1.4228516-3.1723633-3.1728516c0-3.9550781-3.2172852-7.171875-7.1723633-7.171875h-5.1723633c-1.1044922,0-2,0.8955078-2,2c0,1.0673828,0.8383789,1.9316406,1.8911133,1.9882813c-0.324707,4.4765625-1.2446289,9.6777344-2.7973633,13.3886719L156.4135742,31.5605469zM165.2788086,30.5585938c1.2631836,1.1074219,2.9125977,1.7861328,4.7211914,1.7861328c1.7490234,0,3.1723633,1.4228516,3.1723633,3.1728516c0,3.9550781,3.2172852,7.171875,7.1723633,7.171875c1.7490234,0,3.1723633,1.4238281,3.1723633,3.171875c0,1.75-1.4233398,3.1738281-3.1723633,3.1738281s-3.1723633-1.4238281-3.1723633-3.1738281c0-3.9550781-3.2172852-7.171875-7.1723633-7.171875c-1.7490234,0-3.1723633-1.4238281-3.1723633-3.171875c0-1.9296875-0.7695313-3.6816406-2.0136719-4.9707031L165.2788086,30.5585938zM159.6552734,22c1.7490234,0,3.1723633,1.4238281,3.1723633,3.171875c0,1.5771484,0.5175781,3.03125,1.3828125,4.2167969c-2.7866211-1.9794922-5.6611328-4.7207031-8.0268555-7.3886719H159.6552734zM187.4477539,31.5605469c1.0014648,0.5117188,2.1035156,0.7841797,3.2416992,0.7841797c1.8208008,0,3.4804688-0.6875,4.746582-1.8095703l1.6152344,0.0429688c-0.331543-0.1953125-0.6708984-0.4257813-1.0083008-0.6484375c1.1279297-1.2675781,1.8193359-2.9316406,1.8193359-4.7578125c0-3.9550781-3.2177734-7.171875-7.1728516-7.171875h-5.1723633c-1.1044922,0-2,0.8955078-2,2c0,1.0673828,0.8383789,1.9316406,1.8911133,1.9882813c-0.324707,4.4765625-1.2446289,9.6777344-2.7973633,13.3886719L187.4477539,31.5605469zM190.6894531,22c1.7495117,0,3.1728516,1.4238281,3.1728516,3.171875c0,0.9257813-0.4042969,1.7509766-1.0380859,2.3320313C190.8369141,25.828125,188.9008789,23.8984375,187.2177734,22H190.6894531zM193.8623047,56.2070313c0,3.9550781,3.2172852,7.171875,7.1723633,7.171875s7.1723633-3.2167969,7.1723633-7.171875c0-1.7490234,1.4233398-3.171875,3.1728516-3.171875c1.7490234,0,3.1723633,1.4228516,3.1723633,3.171875s-1.4233398,3.171875-3.1723633,3.171875c-4.0893555,0-7.1728516,5.1591797-7.1728516,12v11.0351563c0,6.8417969,3.0834961,12,7.1728516,12c4.0888672,0,7.1723633-5.1582031,7.1723633-12v-0.6894531c0-4.9628906,2.0537109-8,3.1723633-8c1.1181641,0,3.171875,3.0371094,3.171875,8v0.6894531c0,6.8417969,3.0834961,12,7.1723633,12s7.1723633-5.1582031,7.1723633-12V50.6894531c0-6.8417969-3.0834961-12-7.1723633-12c-1.7490234,0-3.1723633-1.4238281-3.1723633-3.171875c0-1.75,1.4233398-3.1728516,3.1723633-3.1728516c3.9550781,0,7.1723633-3.2177734,7.1723633-7.1728516S236.0239258,18,232.0688477,18s-7.1723633,3.2167969-7.1723633,7.171875c0,1.75-1.4228516,3.1728516-3.171875,3.1728516s-3.1723633-1.4228516-3.1723633-3.1728516c0-3.9550781-3.2172852-7.171875-7.1723633-7.171875h-5.1728516c-1.1044922,0-2,0.8955078-2,2c0,1.0673828,0.8383789,1.9316406,1.8911133,1.9882813c-0.3242188,4.4765625-1.2441406,9.6777344-2.796875,13.3886719l4.8369141-3.8164063c1.0009766,0.5117188,2.1035156,0.7841797,3.2416992,0.7841797c1.7490234,0,3.1723633,1.4228516,3.1723633,3.1728516c0,1.7480469-1.4233398,3.171875-3.1723633,3.171875c-3.9550781,0-7.1728516,3.2167969-7.1728516,7.171875c0,1.75-1.4233398,3.1738281-3.1723633,3.1738281C197.0795898,49.0351563,193.8623047,52.2519531,193.8623047,56.2070313zM207.9077148,22h3.472168c1.7490234,0,3.1723633,1.4238281,3.1723633,3.171875c0,1.5771484,0.5175781,3.03125,1.3828125,4.2167969C213.1484375,27.4091797,210.2734375,24.6679688,207.9077148,22zM201.034668,53.0351563c3.9550781,0,7.1723633-3.21875,7.1723633-7.1738281c0-1.7480469,1.4233398-3.171875,3.1728516-3.171875c3.9550781,0,7.1723633-3.2167969,7.1723633-7.171875c0-1.9296875-0.7695313-3.6816406-2.0136719-4.9707031l0.4648438,0.0117188c1.2631836,1.1074219,2.9125977,1.7861328,4.7211914,1.7861328c3.9545898,0,7.171875-3.2177734,7.171875-7.1728516c0-1.7480469,1.4233398-3.171875,3.1723633-3.171875s3.1723633,1.4238281,3.1723633,3.171875c0,1.75-1.4233398,3.1728516-3.1723633,3.1728516c-3.9550781,0-7.1723633,3.2177734-7.1723633,7.1728516s3.2172852,7.171875,7.1723633,7.171875c1.1186523,0,3.1723633,3.0371094,3.1723633,8v31.7246094c0,4.9628906-2.0537109,8-3.1723633,8s-3.1723633-3.0371094-3.1723633-8v-0.6894531c0-6.8417969-3.0830078-12-7.171875-12s-7.1723633,5.1582031-7.1723633,12v0.6894531c0,4.9628906-2.0537109,8-3.1723633,8s-3.1728516-3.0371094-3.1728516-8V71.3789063c0-4.9628906,2.0541992-8,3.1728516-8c3.9550781,0,7.1723633-3.2167969,7.1723633-7.171875s-3.2172852-7.171875-7.1723633-7.171875s-7.1728516,3.2167969-7.1728516,7.171875c0,1.7490234-1.4233398,3.171875-3.1723633,3.171875s-3.1723633-1.4228516-3.1723633-3.171875S199.2856445,53.0351563,201.034668,53.0351563zM190.6894531,104.7587891c4.0893555,0,7.1728516-5.1591797,7.1728516-12V81.7246094c0-6.8417969-3.0834961-12-7.1728516-12c-1.7490234,0-3.1723633-1.4238281-3.1723633-3.1728516c0-3.9550781-3.2172852-7.1728516-7.1723633-7.1728516h-5.1723633c-1.1044922,0-2,0.8964844-2,2c0,1.0683594,0.8383789,1.9316406,1.8911133,1.9902344c-0.324707,4.4746094-1.2446289,9.6757813-2.7973633,13.3876953l4.8369141-3.8173828c1.0014648,0.5117188,2.1035156,0.7851563,3.2416992,0.7851563c1.1186523,0,3.1723633,3.0371094,3.1723633,8v11.0341797C183.5170898,99.5996094,186.6005859,104.7587891,190.6894531,104.7587891zM185.9682617,71.9375c1.2631836,1.109375,2.9125977,1.7871094,4.7211914,1.7871094c1.1186523,0,3.1728516,3.0371094,3.1728516,8v11.0341797c0,4.9628906-2.0541992,8-3.1728516,8s-3.1723633-3.0371094-3.1723633-8V81.7246094c0-4.1601563-1.1445313-7.6894531-2.9575195-9.8242188L185.9682617,71.9375zM176.8730469,63.3789063h3.4716797c1.7490234,0,3.1723633,1.4238281,3.1723633,3.1728516c0,1.5771484,0.5175781,3.03125,1.3828125,4.2158203C182.1132813,68.7890625,179.2387695,66.046875,176.8730469,63.3789063zM310,18h-62.4135742c-1.1044922,0-2,0.8955078-2,2c0,0.8457031,0.5263672,1.5644531,1.2675781,1.8574219c-1.7197266,4.1435547-4.2319336,8.7871094-6.8754883,11.8183594l5.6079102-2.0292969v50.7675781c0,6.6171875,5.3833008,12,12,12H310c6.6171875,0,12-5.3828125,12-12V30C322,23.3828125,316.6171875,18,310,18zM318,82.4140625c0,4.4111328-3.5888672,8-8,8h-52.4135742c-4.4111328,0-8-3.5888672-8-8V31.6464844l5.609375,2.0292969C252.5825195,30.6777344,250.1000977,26.1074219,248.3813477,22H310c4.4111328,0,8,3.5888672,8,8V82.4140625zM299.6552734,28.3447266H269.578125l2.0288086-5.609375c-3.0317383,2.6435547-7.6748047,5.1552734-11.8188477,6.8759766c-0.2929688-0.7402344-1.0117188-1.2666016-1.8569336-1.2666016c-1.1044922,0-2,0.8955078-2,2v41.7236328c0,6.6171875,5.3833008,12,12,12h31.7241211c6.6171875,0,12-5.3828125,12-12V40.3447266C311.6552734,33.7285156,306.2724609,28.3447266,299.6552734,28.3447266zM307.6552734,72.0683594c0,4.4121094-3.5888672,8-8,8h-31.7241211c-4.4111328,0-8-3.5878906-8-8V31.1386719c4.1079102,1.71875,8.6782227,4.2011719,11.6757813,6.8144531l-2.0288086-5.6083984h30.0771484c4.4111328,0,8,3.5888672,8,8V72.0683594zM289.3105469,38.6894531h-21.034668c-1.1044922,0-2,0.8955078-2,2c0,0.8457031,0.5263672,1.5644531,1.2675781,1.8574219c-1.7197266,4.1435547-4.2319336,8.7871094-6.8754883,11.8183594l5.6079102-2.0292969v9.3886719c0,6.6162109,5.3833008,12,12,12h11.034668c6.6166992,0,12-5.3837891,12-12V50.6894531C301.3105469,44.0722656,295.9272461,38.6894531,289.3105469,38.6894531zM297.3105469,61.7246094c0,4.4101563-3.5888672,8-8,8h-11.034668c-4.4111328,0-8-3.5898438-8-8v-9.3886719l5.609375,2.0292969c-2.6132813-2.9980469-5.0957031-7.5683594-6.8144531-11.6757813h20.2397461c4.4111328,0,8,3.5888672,8,8V61.7246094zM314.8271484,100.7587891h-5.171875c-1.1044922,0-2,0.8955078-2,2c0,0.8447266,0.5263672,1.5644531,1.2675781,1.8564453c-1.7197266,4.1445313-4.2314453,8.7871094-6.875,11.8193359l5.6337891-2.0380859c0.2714844,6.3613281,3.2490234,11.0517578,7.1455078,11.0517578c4.0888672,0,7.1728516-5.1591797,7.1728516-12v-0.6894531C322,105.9179688,318.9160156,100.7587891,314.8271484,100.7587891zM318,113.4482422c0,4.9628906-2.0546875,8-3.1728516,8c-1.0429688,0-2.9003906-2.6455078-3.1435547-7.0322266l5.5810547,2.0185547c-2.6132813-2.9970703-5.0957031-7.5673828-6.8144531-11.6757813h4.3769531c1.1181641,0,3.1728516,3.0371094,3.1728516,8V113.4482422zM239.0981445,236.5087891c-0.2929688-0.7412109-1.0117188-1.2666016-1.8569336-1.2666016c-1.1044922,0-2,0.8945313-2,2v21.0332031c0,6.6171875,5.3833008,12,12,12h11.034668c6.6166992,0,12-5.3828125,12-12v-11.0332031c0-6.6171875-5.3833008-12-12-12h-9.3876953l2.0288086-5.609375C247.8852539,232.2753906,243.2421875,234.7880859,239.0981445,236.5087891zM258.2758789,239.2421875c4.4111328,0,8,3.5878906,8,8v11.0332031c0,4.4121094-3.5888672,8-8,8h-11.034668c-4.4111328,0-8-3.5878906-8-8v-20.2392578c4.1079102,1.7177734,8.6787109,4.2001953,11.6757813,6.8134766l-2.0288086-5.6074219H258.2758789zM245.5864258,247.5878906c0,1.0664063,0.8383789,1.9316406,1.8911133,1.9882813c-0.3242188,4.4765625-1.2436523,9.6767578-2.7958984,13.3886719l4.8364258-3.8164063c1.0014648,0.5107422,2.1030273,0.7832031,3.2407227,0.7832031c1.8208008,0,3.4799805-0.6875,4.7460938-1.8085938l1.6166992,0.0410156c-0.3320313-0.1953125-0.6713867-0.4257813-1.0092773-0.6484375c1.1274414-1.2675781,1.8188477-2.9306641,1.8188477-4.7558594c0-3.9550781-3.2172852-7.171875-7.1723633-7.171875h-5.1723633C246.4819336,245.5878906,245.5864258,246.4824219,245.5864258,247.5878906zM252.7587891,249.5878906c1.7490234,0,3.1723633,1.421875,3.1723633,3.171875c0,0.9238281-0.4042969,1.75-1.0375977,2.3300781c-1.9873047-1.6757813-3.9233398-3.6054688-5.6064453-5.5019531H252.7587891zM249.5751953,278.5117188c-0.0576172-1.0527344-0.921875-1.890625-1.9887695-1.890625c-1.1044922,0-2,0.8964844-2,2v5.171875c0,3.9550781,3.2172852,7.1728516,7.1723633,7.1728516c1.8266602,0,3.4902344-0.6923828,4.7578125-1.8193359c0.2231445,0.3369141,0.4526367,0.6757813,0.6484375,1.0078125l-0.0424805-1.6152344c1.121582-1.265625,1.8085938-2.9257813,1.8085938-4.7460938c0-1.1367188-0.2724609-2.2402344-0.7841797-3.2402344l3.8173828-4.8388672C259.2524414,277.2666016,254.0517578,278.1865234,249.5751953,278.5117188zM252.7587891,286.9658203c-1.7490234,0-3.1723633-1.4228516-3.1723633-3.1728516v-3.4716797c1.8979492,1.6826172,3.828125,3.6181641,5.5039063,5.6064453C254.5097656,286.5605469,253.6835938,286.9658203,252.7587891,286.9658203zM61.7241211,266.2753906h-21.034668c-1.1044922,0-2,0.8964844-2,2c0,0.8457031,0.5263672,1.5644531,1.2675781,1.8574219c-1.7197266,4.1445313-4.2324219,8.7871094-6.8754883,11.8183594l5.6079102-2.0283203v9.3876953c0,6.6171875,5.3833008,12,12,12h11.034668c6.6166992,0,12-5.3828125,12-12v-11.0351563C73.7241211,271.6591797,68.3408203,266.2753906,61.7241211,266.2753906zM69.7241211,289.3105469c0,4.4121094-3.5888672,8-8,8h-11.034668c-4.4111328,0-8-3.5878906-8-8v-9.3876953l5.609375,2.0283203c-2.6132813-2.9960938-5.0957031-7.5673828-6.8144531-11.6757813h20.2397461c4.4111328,0,8,3.5898438,8,8V289.3105469zM72.0693359,255.9316406H41.9921875l2.0288086-5.609375c-3.0317383,2.6425781-7.6748047,5.15625-11.8188477,6.8769531c-0.2929688-0.7421875-1.0117188-1.2675781-1.8569336-1.2675781c-1.1044922,0-2,0.8955078-2,2V299.65625c0,6.6162109,5.3833008,12,12,12h31.7241211c6.6166992,0,12-5.3837891,12-12v-31.7246094C84.0693359,261.3144531,78.6860352,255.9316406,72.0693359,255.9316406zM80.0693359,299.65625c0,4.4101563-3.5888672,8-8,8H40.3452148c-4.4111328,0-8-3.5898438-8-8v-40.9296875c4.1079102,1.7167969,8.6782227,4.1992188,11.6757813,6.8125l-2.0288086-5.6074219h30.0771484c4.4111328,0,8,3.5888672,8,8V299.65625zM82.4135742,245.5878906H20c-1.1044922,0-2,0.8945313-2,2c0,0.8447266,0.5263672,1.5644531,1.2675781,1.8564453c-1.7197266,4.1435547-4.2324219,8.7871094-6.8754883,11.8193359L18,259.234375V310c0,6.6171875,5.3833008,12,12,12h52.4135742c6.6166992,0,12-5.3828125,12-12v-52.4121094C94.4135742,250.9707031,89.0302734,245.5878906,82.4135742,245.5878906zM90.4135742,310c0,4.4111328-3.5888672,8-8,8H30c-4.4111328,0-8-3.5888672-8-8v-50.765625l5.609375,2.0292969c-2.6132813-2.9980469-5.0957031-7.5683594-6.8144531-11.6757813h61.6186523c4.4111328,0,8,3.5878906,8,8V310zM35.5175781,131.7929688c-1.7490234,0-3.1723633-1.4228516-3.1723633-3.171875c0-3.9550781-3.2172852-7.1728516-7.1723633-7.1728516H20c-1.1044922,0-2,0.8955078-2,2c0,1.0673828,0.8383789,1.9306641,1.8911133,1.9892578c-0.3251953,4.4755859-1.2456055,9.6757813-2.7983398,13.3876953l4.8378906-3.8164063c1.0009766,0.5126953,2.1035156,0.7841797,3.2421875,0.7841797c1.1186523,0,3.1723633,3.0371094,3.1723633,8v0.6894531c0,6.8417969,3.0834961,12,7.1723633,12c1.7490234,0,3.171875,1.4238281,3.171875,3.1738281c0,1.1181641-3.0371094,3.171875-8,3.171875H30c-6.8413086,0-12,3.0839844-12,7.171875c0,3.9550781,3.2177734,7.1728516,7.1728516,7.1728516c1.1186523,0,3.1723633,3.0371094,3.1723633,8v0.6904297c0,4.9628906-2.0537109,8-3.1723633,8c-4.0893555,0-7.1728516,5.1582031-7.1728516,12v21.3789063c0,6.8408203,3.0834961,12,7.1728516,12c4.0888672,0,7.1723633-5.1591797,7.1723633-12v-11.0351563c0-4.9628906,2.0541992-8,3.1723633-8c4.0888672,0,7.171875-5.1582031,7.171875-12V174.828125c0-4.9628906,2.0541992-8,3.1723633-8c3.9550781,0,7.1723633-3.2167969,7.1723633-7.171875c0-1.75,1.4233398-3.1738281,3.1728516-3.1738281c3.9550781,0,7.1723633-3.2167969,7.1723633-7.171875s-3.2172852-7.171875-7.1723633-7.171875s-7.1728516,3.2167969-7.1728516,7.171875c0,1.7490234-1.4233398,3.171875-3.1723633,3.171875c-1.1181641,0-3.1723633-3.0371094-3.1723633-8v-0.6894531C42.6894531,136.9521484,39.6064453,131.7929688,35.5175781,131.7929688zM21.7001953,125.4482422h3.4726563c1.7490234,0,3.1723633,1.4228516,3.1723633,3.1728516c0,1.578125,0.5180664,3.0332031,1.3852539,4.21875C26.9423828,130.8603516,24.0664063,128.1171875,21.7001953,125.4482422zM45.8618164,156.4824219c3.9550781,0,7.1723633-3.2167969,7.1723633-7.171875c0-1.7490234,1.4233398-3.171875,3.1728516-3.171875c1.7490234,0,3.1723633,1.4228516,3.1723633,3.171875s-1.4233398,3.171875-3.1723633,3.171875c-3.9550781,0-7.1728516,3.21875-7.1728516,7.1738281c0,1.7480469-1.4233398,3.171875-3.1723633,3.171875c-4.0888672,0-7.1723633,5.1582031-7.1723633,12v21.3789063c0,4.9628906-2.0537109,8-3.171875,8c-4.0888672,0-7.1723633,5.1591797-7.1723633,12v11.0351563c0,4.9628906-2.0537109,8-3.1723633,8S22,232.2050781,22,227.2421875v-21.3789063c0-4.9628906,2.0541992-8,3.1728516-8c4.0888672,0,7.1723633-5.1591797,7.1723633-12v-0.6904297c0-6.8408203-3.0834961-12-7.1723633-12C23.4233398,173.1728516,22,171.75,22,170c0-1.1181641,3.0371094-3.171875,8-3.171875h0.6894531c6.8413086,0,12-3.0839844,12-7.171875c0-3.9550781-3.2172852-7.1738281-7.171875-7.1738281c-1.1181641,0-3.1723633-3.0371094-3.1723633-8v-0.6894531c0-4.1591797-1.144043-7.6875-2.9570313-9.8222656l1.4091797,0.0371094c1.2626953,1.1074219,2.9121094,1.7851563,4.7202148,1.7851563c1.1181641,0,3.171875,3.0371094,3.171875,8v0.6894531C38.6894531,151.3242188,41.7729492,156.4824219,45.8618164,156.4824219z"/>
</svg>
