<?xml version="1.0" encoding="utf-8"?>
<svg version="1.1" xmlns="http://www.w3.org/2000/svg" x="0px" y="0px" width="340px" height="340px" viewBox="0 0 340 340">
<path d="M20,20h72.4135742v72.4140625H20V20zM30.3452148,30.3447266v51.7236328h51.7241211V30.3447266H30.3452148zM40.6894531,40.6894531h31.034668v31.0351563h-31.034668V40.6894531zM102.7587891,20h20.6899414v10.3447266h10.3442383V20h10.3447266v31.0351563h10.3452148v10.34375h10.3447266v10.3457031h-10.3447266v20.6894531h10.3447266V82.0683594h10.3447266v10.3457031h-10.3447266v20.6894531h-10.3447266v20.6894531h-10.3452148v10.3457031h10.3452148v10.34375h-10.3452148v51.7246094h10.3452148v-51.7246094h10.3447266v31.0351563h10.3447266v10.3457031h-10.3447266v10.34375h10.3447266v-10.34375h10.3447266v10.34375h10.3452148v10.3447266h-10.3452148v20.6904297h10.3452148v-10.3447266h10.3447266v10.3447266h10.3452148v10.3457031h10.3442383v-20.6904297h20.6899414v-20.6904297h-10.3452148v10.3447266h-10.3447266v-10.3447266h-20.6894531v-10.34375h20.6894531v-10.3457031h-31.0341797v-31.0351563h-10.3452148v31.0351563h10.3452148v10.3457031h-10.3452148v-10.3457031h-10.3447266v-31.0351563h-10.3447266v-10.34375h10.3447266v-10.3457031h-10.3447266v-20.6894531h10.3447266v10.3447266h10.3447266v-10.3447266h20.6899414v-10.3447266h20.6894531v10.3447266h-20.6894531v10.3447266h-10.3447266v20.6904297h10.3447266v-20.6904297h10.3452148v20.6904297h-10.3452148v31.0341797h20.6894531V164.828125h-10.3442383v-20.6894531h10.3442383v10.34375h10.3447266v-20.6894531h-10.3447266v-10.3447266h10.3447266v-10.3447266h20.6899414v-10.3447266h20.6894531v10.3447266h20.6899414v10.3447266h-10.3447266v10.3447266h-10.3452148v-10.3447266h-20.6894531v10.3447266h10.3447266v20.6894531h-10.3447266v-10.34375h-10.3447266v10.34375h10.3447266v10.3457031h10.3447266v-10.3457031h20.6899414v-10.34375h10.3447266v-10.3457031h10.3447266v10.3457031H320v20.6894531h-20.6894531v-10.3457031h-10.3447266v10.3457031h-20.6899414v10.3447266h-10.3447266V164.828125h-10.3447266v10.3447266h-10.3452148v20.6904297h41.3793945v-10.3457031h-10.3447266v-10.3447266h20.6899414v10.3447266h10.3447266v10.3457031h10.3447266v-20.6904297H320v31.0341797h-20.6894531v10.3447266h-10.3447266v10.3457031h10.3447266v-10.3457031H320v31.0361328h-20.6894531v-10.3457031h-10.3447266v10.3457031h-10.3452148v10.34375h10.3452148v10.34375h20.6894531v-10.34375H320v10.34375h-10.3447266v10.3457031h-20.6894531v10.3447266h-10.3452148v-10.3447266h-10.3447266v10.3447266h10.3447266v10.3447266h10.3452148V309.65625h10.3447266v-20.6904297h10.3447266V309.65625h-10.3447266V320h-31.034668v-20.6894531h-20.6894531V309.65625h10.3447266V320h-20.6899414v-10.34375h-10.3447266v-10.3457031h-10.3442383V309.65625h10.3442383V320h-31.0341797v-10.34375h10.3447266v-10.3457031h-10.3447266V309.65625h-10.3452148v-10.3457031h10.3452148v-10.3447266h20.6899414v-10.3447266h10.3442383v-10.3457031h-10.3442383v10.3457031h-10.3452148v-10.3457031h10.3452148v-10.34375h-10.3452148v-20.6894531h-10.3447266v10.3457031h-10.3452148v-10.3457031h-10.3447266v10.3457031h10.3447266v10.34375h10.3452148v10.34375h-10.3452148v-10.34375h-20.6894531v-10.34375h-31.034668v20.6875h20.6899414v-10.34375h10.3447266v10.34375h-10.3447266v10.3457031h-10.3452148v10.3447266h10.3452148v10.3447266h10.3447266v-31.0351563h10.3447266v10.3457031h20.6899414v10.3447266h-20.6899414V320h-10.3447266v-10.34375h-10.3447266v-10.3457031h-10.3452148v-10.3447266h-10.3447266V309.65625h10.3447266V320h-10.3447266v-10.34375h-10.3442383v-20.6904297h10.3442383v-10.3447266h-10.3442383v-20.6894531h-10.3452148V309.65625h-10.3447266v-72.4140625H82.0693359v-10.3447266h20.6894531v-10.3457031h10.3447266v-10.3447266h10.3452148v20.6904297h-10.3452148v10.3447266h10.3452148v-10.3447266h10.3442383v-10.3457031h10.3447266v20.6904297h10.3452148v-10.3447266h10.3447266v-10.3457031h-20.6899414v-10.3447266h-10.3447266v-10.34375h-20.6894531v-10.3457031h10.3452148v-10.3447266h10.3442383V164.828125h-10.3442383v10.3447266h-20.6899414V164.828125h20.6899414v-10.3457031h-20.6899414v10.3457031H92.4135742v10.3447266H82.0693359v10.3447266h20.6894531v10.3457031H82.0693359v10.34375h20.6894531v10.3447266H82.0693359v-10.3447266H71.7241211v31.0351563H61.3793945v-10.3447266H51.0341797v10.3447266H40.6894531v-20.6904297h10.3447266v-20.6884766h10.3452148v10.34375h10.3447266v-20.6894531H61.3793945v-10.3447266h10.3447266V164.828125h20.6894531v-10.3457031H82.0693359v-10.34375h20.6894531v-10.3457031h10.3447266v10.3457031h20.6894531v-10.3457031h-20.6894531v-10.3447266h-10.3447266v10.3447266H82.0693359v-10.3447266h20.6894531v-10.3447266H61.3793945v10.3447266H51.0341797v-10.3447266H30.3452148v-10.3447266h72.4135742v10.3447266h10.3447266v-10.3447266h10.3452148v20.6894531h10.3442383v-10.3447266h10.3447266V71.7246094h-10.3447266v20.6894531h-10.3442383V61.3789063h10.3442383v-10.34375h-10.3442383v10.34375h-10.3452148v31.0351563h-10.3447266V61.3789063h10.3447266v-10.34375h10.3452148V30.3447266h-20.6899414V20zM154.4829102,20h10.3447266v10.3447266h10.3447266v10.3447266h10.3447266v10.3457031h-10.3447266V40.6894531h-10.3447266V30.3447266h-10.3447266V20zM185.5170898,20h10.3452148v10.3447266h-10.3452148V20zM195.8623047,51.0351563h10.3447266V40.6894531h10.3452148V30.3447266h-10.3452148V20h10.3452148v10.3447266h10.3442383V20h10.3447266v10.3447266h-10.3447266v10.3447266h10.3447266v51.7246094h-10.3447266V71.7246094h-10.3442383v20.6894531h-10.3452148V61.3789063h10.3452148v-10.34375h-10.3452148v10.34375h-10.3447266V51.0351563zM175.1723633,61.3789063h10.3447266v10.3457031h10.3452148v31.0341797h-10.3452148V71.7246094h-10.3447266V61.3789063zM247.5864258,20H320v72.4140625h-72.4135742V20zM257.9311523,30.3447266v51.7236328h51.7241211V30.3447266H257.9311523zM268.2758789,40.6894531h31.034668v31.0351563h-31.034668V40.6894531zM309.6552734,102.7587891H320v20.6894531h-10.3447266V102.7587891zM237.2412109,237.2421875v31.0332031h31.034668v-31.0332031H237.2412109zM247.5864258,247.5878906h10.3447266v10.34375h-10.3447266V247.5878906zM247.5864258,278.6210938v10.3447266h10.3447266v-10.3447266H247.5864258zM40.6894531,268.2753906h31.034668v31.0351563h-31.034668V268.2753906zM30.3452148,257.9316406V309.65625h51.7241211v-51.7246094H30.3452148zM20,247.5878906h72.4135742V320H20V247.5878906zM20,123.4482422h10.3452148v10.3447266h10.3442383v20.6894531h10.3447266v-10.34375h10.3452148v10.34375H51.0341797v10.3457031H40.6894531v41.3789063H30.3452148v31.0351563H20v-41.3789063h10.3452148v-20.6904297H20V164.828125h20.6894531v-10.3457031H30.3452148v-20.6894531H20V123.4482422z"/>
</svg>
