<?xml version="1.0" encoding="utf-8"?>
<svg version="1.1" xmlns="http://www.w3.org/2000/svg" x="0px" y="0px" width="340px" height="340px" viewBox="0 0 340 340">
<path fill="#999" d="M20,20v50h100v100h50v50h150V20H20zM270,170h-50v-50h-50V70h100V170zM120,270H70v-50h50v-50H70v-50H20v200h150V220h-50V270zM220,320h100v-50H220V320z"/>
<path fill="#c00" d="M300,16H20c-2.2089844,0-4,1.7910156-4,4c0,1.5,0.8359375,2.7929688,2.0581055,3.4765625L8.1005859,40.7246094H16V50c0,13.2333984,10.7666016,24,24,24h60c8.8222656,0,16,7.1777344,16,16v60c0,13.2333984,10.7666016,24,24,24h10c8.8222656,0,16,7.1777344,16,16v10c0,13.2333984,10.7666016,24,24,24h110c13.2333984,0,24-10.7666016,24-24V40C324,26.7666016,313.2333984,16,300,16zM316,200c0,8.8222656-7.1777344,16-16,16H190c-8.8222656,0-16-7.1777344-16-16v-10c0-13.2333984-10.7666016-24-24-24h-10c-8.8222656,0-16-7.1777344-16-16V90c0-13.2333984-10.7666016-24-24-24H40c-8.8222656,0-16-7.1777344-16-16v-9.2753906h8.0327148L22.375,24H300c8.8222656,0,16,7.1777344,16,16V200zM250,66h-59.2753906v-8.0332031l-17.3022461,9.9921875C172.7241211,66.7910156,171.4599609,66,170,66c-2.2089844,0-4,1.7910156-4,4v30c0,13.234375,10.7661133,24,24,24h10c8.8222656,0,16,7.1777344,16,16v10c0,13.234375,10.7661133,24,24,24h10c13.2338867,0,24-10.765625,24-24V90C274,76.765625,263.2338867,66,250,66zM266,150c0,8.8222656-7.1777344,16-16,16h-10c-8.8222656,0-16-7.1777344-16-16v-10c0-13.234375-10.7661133-24-24-24h-10c-8.8222656,0-16-7.1777344-16-16V72.2441406l16.7246094,9.6552734V74H250c8.8222656,0,16,7.1777344,16,16V150zM150,216h-10c-13.2338867,0-24,10.765625-24,24v10c0,8.8222656-7.1777344,16-16,16H90c-8.8222656,0-16-7.1777344-16-16v-10c0-8.8222656,7.1777344-16,16-16h10c13.2338867,0,24-10.765625,24-24v-10c0-13.234375-10.7661133-24-24-24H90c-8.8222656,0-16-7.1777344-16-16v-10c0-13.234375-10.7661133-24-24-24H20c-2.2089844,0-4,1.7910156-4,4c0,1.5,0.8359375,2.7929688,2.0581055,3.4765625l-9.9575195,17.2480469H16V300c0,13.234375,10.7661133,24,24,24h110c13.2338867,0,24-10.765625,24-24v-60C174,226.765625,163.2338867,216,150,216zM166,300c0,8.8222656-7.1777344,16-16,16H40c-8.8222656,0-16-7.1777344-16-16V140.7246094h8.0327148L22.375,124H50c8.8222656,0,16,7.1777344,16,16v10c0,13.234375,10.7661133,24,24,24h10c8.8222656,0,16,7.1777344,16,16v10c0,8.8222656-7.1777344,16-16,16H90c-13.2338867,0-24,10.765625-24,24v10c0,13.234375,10.7661133,24,24,24h10c13.2338867,0,24-10.765625,24-24v-10c0-8.8222656,7.1777344-16,16-16h10c8.8222656,0,16,7.1777344,16,16V300zM300,266h-80c-2.2089844,0-4,1.7910156-4,4c0,1.5,0.8359375,2.7929688,2.0581055,3.4765625l-9.9575195,17.2480469H216V300c0,13.234375,10.7661133,24,24,24h60c13.2333984,0,24-10.765625,24-24v-10C324,276.765625,313.2333984,266,300,266zM316,300c0,8.8222656-7.1777344,16-16,16h-60c-8.8222656,0-16-7.1777344-16-16v-9.2753906h8.0327148L222.375,274H300c8.8222656,0,16,7.1777344,16,16V300z"/>
</svg>
